<?xml version="1.0" encoding="utf-8"?>
<!-- Generator: Adobe Illustrator 15.1.0, SVG Export Plug-In . SVG Version: 6.00 Build 0)  -->
<!DOCTYPE svg PUBLIC "-//W3C//DTD SVG 1.1//EN" "http://www.w3.org/Graphics/SVG/1.1/DTD/svg11.dtd">
<svg version="1.1" id="Layer_1" xmlns="http://www.w3.org/2000/svg" xmlns:xlink="http://www.w3.org/1999/xlink" x="0px" y="0px"
	 width="1200px" height="150px" viewBox="0 0 1200 150" enable-background="new 0 0 1200 150" xml:space="preserve">
<g>
	<path fill-rule="evenodd" clip-rule="evenodd" fill="#FEF9DF" d="M88.127,30.445l-9.867-4.706l-9.894-0.287l-7.414,2.37
		l-2.075,2.19l-1.214,1.632l-2.02,6.362l-0.154,5.331c0,0,1.077,6.492,4.769,8.391c3.694,1.9,0.979,2.696,0.979,2.696L57.2,67.731
		l-4.173,8.798l-3.543,7.15l6.141,3.93l-2.923,28.941l6.208,1.561l2.149-2.332l17.23,0.971l5.169,2.846l3.585,0.105l1.729-2.105
		l1.006-8.904L86.027,74.15l-3.601-19.61l5.245-2.601l2.229-2.103l1.744-5.535l0.172-5.998"/>
	<path fill-rule="evenodd" clip-rule="evenodd" fill="#5B5C5A" d="M64.001,45.311c-1.912-2.046-0.709-4.126,0.661-5.389
		c1.556-1.431,3.467-0.479,4.603,1.215c1.258,1.878,0.521,4.167-1.576,5.431c0.029-0.275,0.059-0.549,0.087-0.823
		c0.458-1.65,1.308-3.822-0.94-4.351c-2.132-0.501-1.637,1.921-2.054,3.207C64.52,44.838,64.26,45.073,64.001,45.311"/>
	<path fill-rule="evenodd" clip-rule="evenodd" fill="#5B5C5A" d="M74.922,38.15c-0.703,0.457-1.448,1.268-2.269,0.425
		c-0.832-0.856-0.414-1.76,0.347-2.513c0.71-0.143,1.416-0.222,2.084,0.167c-0.037,0.133,0.006,0.229,0.13,0.289
		C75.118,37.062,75.019,37.606,74.922,38.15"/>
	<path fill-rule="evenodd" clip-rule="evenodd" fill="#5B5C5A" d="M67.776,45.744c-0.027,0.274-0.058,0.548-0.086,0.823
		c-1.474,0.295-2.781,0.106-3.689-1.256c0.259-0.237,0.519-0.473,0.78-0.71C65.606,45.438,66.478,46.147,67.776,45.744"/>
	<path fill-rule="evenodd" clip-rule="evenodd" fill="#5B5C5A" d="M61.867,33.452c-1.233-0.048-1.002,1.208-1.133,2.021
		c-0.004,0.028-0.002,0.059-0.005,0.09c0.276,0.831,0.901,1.031,0.901,1.031l-0.011,0.122c0.572-0.081,0.971-0.482,1.226-1.156
		C62.747,34.735,63.111,33.5,61.867,33.452"/>
	<path fill="#5B5C5A" d="M90.549,107.701c-0.643-8.256-2.649-23.549-3.11-28.49c-0.593-6.34-4.177-23.569-4.177-23.569
		c0.09-0.351,0.389-0.611,0.889-0.769c6.518-2.036,7.746-7.399,8.309-13.191c0.217-2.237-0.23-4.385-0.771-6.527
		c-0.168-0.372-0.334-0.745-0.502-1.119c-0.043-0.096-0.088-0.192-0.131-0.29c-0.637-1.347-3.755-7.052-11.367-8.381
		c-8.648-1.509-12.6-1.034-17.286,0.999c-2.464,1.069-4.643,3.746-6.154,6.436c-0.104,0.27-2.224,5.872-1.482,10.335
		c0.505,2.125,1.202,4.297,1.744,5.372c0.797,1.348,1.772,2.664,2.96,3.928c0.399,0.426,0.74,0.839,0.841,1.266
		c-0.715,0.869-1.406,2.286-1.606,2.712c-0.011,0.023-0.021,0.045-0.031,0.067c-0.017,0.035-0.027,0.059-0.027,0.059l0.003,0
		c-0.373,0.875-0.505,1.839-0.658,2.801c-0.326,2.052-0.723,4.078-1.212,6.066l-1.214,4.214c-0.021,0.062-0.042,0.126-0.064,0.187
		c-0.212,0.476-1.659,3.732-3.127,7.032c-0.122,0.213-0.262,0.42-0.388,0.633l0.015,0.004c0,0-2.566,4.508-2.799,5.75l-0.02-0.012
		c0,0-0.382,1.113,0.147,1.506c0.531,0.391,4.221,2.498,4.221,2.498s0.546,0.186,1.083,0.285l-0.051,0.439
		c0.01,0.076-0.009,0.123-0.012,0.133l-0.066,0.592c-0.419,3.814-2.771,25.285-2.791,25.967c-0.021,0.748-0.377,1.629,0.353,2.219
		c0.728,0.59,6.583,1.98,6.583,1.98c0.99-0.061,2.278-1.311,2.715-2.031c0.438-0.727,1.097-0.512,1.097-0.512l1.529,0.045
		c0.269-0.055,0.552-0.086,0.862-0.068c3.312,0.189,6.643,0.066,9.92,0.703c0.662,0.129,1.307,0.248,1.938,0.402h0.002
		c0,0,0.002,0.002,0.004,0.002c1.078,0.264,2.113,0.629,3.107,1.342c0,0,0.003,0.002,0.004,0.002
		c0.466,0.303,3.004,1.547,3.004,1.547s1.006,0.047,2.226,0.104c0.751-0.01,1.504-0.031,2.226,0.025
		c1.564-0.412,2.43-3.291,2.436-3.311C90.588,113.326,90.549,107.768,90.549,107.701 M85.053,53.073
		c-0.393,0.655-0.934,0.597-0.934,0.597l-5.246-1.652c0,0,0.146-0.704,0.391-1.948c0.244-1.243-0.249-1.507-0.249-1.507
		l-0.448-0.321c0,0,1.611-6.773,1.855-7.976c0.244-1.202,1.184-0.599,1.184-0.599l5.699,1.154c0.96,0.305,1.416,1.024,1.114,1.824
		c-0.117,0.455-0.13,0.556-0.169,0.648c-0.595,1.359-0.772,3.358-1.492,4.455C86.393,49.032,85.374,52.54,85.053,53.073
		 M79.546,54.671l-0.31,0.276c0.072-0.094,0.155-0.182,0.258-0.25C79.511,54.686,79.529,54.682,79.546,54.671 M86.276,40.413
		l0.186,0.029l0.003,0.043L86.276,40.413z M56.718,46.387l0.015,0.004c-1.121-2.12-0.942-4.763-0.804-7.271
		c-0.008-0.452,0.055-1.021,0.235-1.767c1.231-5.091,2.852-6.474,2.852-6.474v0.008c0.213-0.255,0.442-0.514,0.706-0.78
		c0.003-0.003,0.004-0.006,0.006-0.008c1.442-1.425,4.961-3.206,6.245-3.832c0.235-0.05,0.469-0.103,0.706-0.154
		c0.002-0.001,0.002-0.001,0.003-0.002c0.004,0,0.008-0.001,0.012,0c0.161-0.037,0.32-0.071,0.482-0.106
		c0.015-0.002,0.03-0.002,0.044-0.002c4.868-0.95,13.281,0.77,18.259,3.405c5.162,2.735,5.289,9.034,5.289,9.034l-0.008-0.005
		c0.182,0.911,0.291,1.91,0.182,2.677c-0.156,1.121-0.555,4.777-1.564,7.442c-0.352,0.927-0.812,1.675-1.266,2.27l-0.187,0.227
		c0.016-0.011,0.022-0.02,0.036-0.031c-0.078,0.097-0.153,0.179-0.229,0.267l0.192-0.236c-0.2,0.141-0.565,0.303-1.194,0.443
		c0.701-2.424,2.475-8.567,2.771-9.604c0.371-1.295-0.625-1.511-0.625-1.511s-4.666-1.464-5.619-1.699
		c-0.25-0.063-0.461-0.094-0.643-0.104l-1.557-0.253c0,0-0.955-0.061-1.23,0.804c-0.244,0.765-1.775,7.494-2.117,9
		c-0.615-0.146-1.404-0.324-1.885-0.405c-0.86-0.143-1.691,1.009-1.708,1.033c-0.203,0.389-0.355,0.838-0.459,1.35
		c-0.099,0.504-0.204,1.017-0.38,1.503l0.003,0.001l-0.737,2.232c0,0-0.271,0.578-0.979,0.742c-0.877-0.009-2.163-0.061-4.003-0.213
		c-0.021-0.003-0.043-0.006-0.065-0.006c-4.219-0.361-6.392-2.188-6.54-2.314C59.213,50.413,57.212,47.855,56.718,46.387
		 M53.806,85.799l-0.363-0.184c-0.031,0.004-0.058-0.004-0.088-0.004c-0.24-0.105-0.49-0.227-0.729-0.35
		c-0.036-0.035-0.074-0.066-0.108-0.107l-1.17-0.586l-0.706-0.439c-0.365-0.568-0.094-1.209-0.094-1.209l1.705-3.324
		c0.08-0.1,0.162-0.199,0.234-0.289c0.51-0.611,1.903-3.573,3.086-6.187l0.003-0.007l0-0.004c1.021-2.251,1.882-4.246,1.882-4.246
		s-1.894,12.81-2.377,16.07C55.08,84.938,54.789,86.164,53.806,85.799 M88.264,116.15c-0.343,1.908-0.441,2.438-1.193,2.482
		c-0.752,0.047-3.424,0.193-3.424,0.193s-1.68,0.129-2.629-1.252c-5.451-3.162-11.427-2.723-17.309-3.057
		c-0.404-0.021-0.808-0.055-1.208-0.082h0c0,0-2.331,0.4-2.521,1.146c-0.118,0.463-0.438,1.244-0.939,1.66
		c-0.007,0.004-0.013,0.01-0.019,0.014c-0.088,0.07-0.18,0.125-0.277,0.17c-0.232,0.059-0.651,0.012-1.149-0.09
		c-0.33-0.102-0.73-0.203-1.144-0.293c-0.01-0.002-0.02-0.002-0.03-0.004c-1.336-0.383-2.707-0.896-2.707-0.896
		c-0.46-0.436-0.313-1.119-0.224-1.746c0.962-6.859,1.913-13.725,2.873-20.586c-0.044-0.176-0.074-0.338-0.074-0.471
		c-0.001-0.996,1.729-13.539,1.729-13.539s1.918-15.909,2.402-19.647c0.198-1.543,0.446-2.783,0.668-3.728
		c0.944-1.911,1.393-1.845,1.393-1.845l0-0.002l1.238,0.346c2.039,0.242,6.405,0.777,7.036,0.986
		c1.17-0.049,0.987,0.446,0.987,0.446s-2.064,6.568-3.047,10.209c-0.981,3.64-1.407,9.67-1.262,10.467
		c0.143,0.797,0.503,3.637,2.364,4.779c1.86,1.143,4.473-0.496,4.686-0.615c0.21-0.119,5.698-5.336,6.089-5.868
		s0.322-1.074-0.166-1.463c-0.201-0.16-0.439-0.076-0.651,0.074l-0.558,0.574l-0.002,0.002l-0.215,0.221
		c-1.146,1.252-2.168,2.583-3.451,3.633c-1.496,1.227-3.043,3.029-4.934,2.098c-1.904-0.938-2.11-3.346-1.885-5.374
		c0.194-1.773,0.499-3.517,0.877-5.243c0.001,0,0-0.002,0-0.004c0.039-1.829,1.647-6.676,1.647-6.676
		c1.004-3.73,3.288-12.2,3.59-13.228c0.393-1.325,1.015-1.13,1.015-1.13l0.772,0.147c0.197-0.008,0.412,0.012,0.672,0.105
		c0.027,0.011,0.044,0.026,0.072,0.038l0.039,0.006l-0.003,0.011c1.342,0.569,0.592,1.706,0.342,2.656
		c-0.019,0.111-0.037,0.223-0.057,0.334c-0.001,0.004-0.729,2.304-0.622,3.309c-0.68,4.143-2.166,8.1-2.984,12.21
		c-0.156,0.785-0.388,1.554-0.534,2.34c-0.151,0.812-0.252,1.784,0.81,1.924c0.437,0.059,0.679-0.157,0.837-0.464
		c-0.001-0.001,0-0.002,0-0.003c0.072-0.141,0.127-0.303,0.174-0.465c0.197-0.885,0.263-2.858,0.881-5.683
		c0.768-3.521,2.383-6.016,3.143-6.286c0.758-0.27,1.275-0.479,1.277-0.479c0.115-0.938-0.706-1.353-1.348-1.951
		c-0.189-0.178-0.295-0.399-0.333-0.631c0.563-0.045,1.312-0.112,2.056-0.205l0.739-0.207c0,0,1.808,7.695,1.829,10.023
		c-0.001,0.002-0.001,0.005,0,0.008c0.101,0.936,0.203,1.87,0.301,2.804c0.004,0.029,2.8,21.247,3.99,31.194
		c0.035,0.266,0.059,0.512,0.087,0.77c0.026,0.23,0.054,0.461,0.079,0.691C89.036,109.967,88.59,114.342,88.264,116.15"/>
</g>
<g>
	<polyline fill-rule="evenodd" clip-rule="evenodd" fill="#FEF9DF" points="215.425,28.585 214.141,38.151 215.911,43.448 
		217.389,46.827 222.632,51.895 226.141,53.095 225.143,55.327 221.107,59.185 214.308,63.181 205.074,66.4 191.059,54.314 
		187.692,54.417 168.818,59.604 168.717,61.347 181.279,71.893 181.11,74.188 202.917,72.391 199.667,76.812 195.818,84.703 
		195.577,87.742 196.948,89.939 200.169,91.533 211.609,92.738 215.625,89.754 217.337,91.172 221.751,92.533 226.367,94.197 
		246.494,93.582 254.411,90.939 261.107,89.719 263.781,86.16 268.502,84.164 271.67,77.525 277.833,48.093 277.301,45.938 
		274.279,45.894 267.78,50.375 262.896,57.147 259.699,64.343 259.029,71.391 258.27,77.453 258.801,80.699 259.777,85.115 
		261.672,87.424 260.718,89.139 255.035,89.713 251.846,86.945 244.589,83.297 247.075,71.978 246.184,58.861 244.153,50.473 
		249.526,45.599 251.524,40.497 250.881,33.41 249.067,30.043 245.405,25.096 240.205,21.162 232.83,20.361 227.208,21.387 
		220.746,24.554 	"/>
	<path fill="#5B5C5A" d="M232.305,39.759c0.719-0.559,0.665-1.352,0.382-2.123c-0.244-0.665-0.828-0.865-1.458-0.565
		c-0.987,0.474-0.785,1.265-0.404,2.03C231.111,39.674,231.508,40.1,232.305,39.759"/>
	<path fill="#5B5C5A" d="M220.73,41.194c0.221-0.88-0.32-1.465-0.979-1.95c-0.96,0.647-0.55,1.553-0.453,2.4
		C219.856,41.739,220.524,42.019,220.73,41.194"/>
	<path fill="#5B5C5A" d="M272.79,45.52c-0.405,0.216-0.804,0.443-1.198,0.681c0,0-6.3,4.601-10.183,12.574
		c-3.88,7.974-3.989,18.692-3.636,20.845h0.001c0.215,1.248,0.419,2.498,0.581,3.752c0.078,0.6,0.408,1.301,0.523,1.936h0.006
		c0,0,1.134,2.113,1.883,2.264c0,0-0.016,1.369-0.948,1.574c-0.934,0.203-3.086,0.119-3.086,0.119s-1.644-1.92-2.913-2.602
		c-2.225-1.174-4.45-2.27-6.867-2.98c-0.241-0.072-0.443-0.162-0.622-0.268c0,0-0.003,0.004-0.002,0.002
		c-0.04-0.02-0.084-0.043-0.135-0.076c0,0-0.001-0.002-0.003-0.002c-0.336-0.213-0.847-0.688-0.46-1.293
		c-0.001,0,0.001-0.004,0.002-0.006c0.033-0.111,0.081-0.23,0.142-0.354c0.448-1.395,1.125-5.926,2.158-10.136
		c0-0.001,0-0.001,0.001-0.001c0.023-0.567,0.046-1.136,0.07-1.706l0.001,0.002c0.145-0.748,0.173-1.766,0.125-2.933
		c0-0.03,0-0.061,0.002-0.092c-0.004-0.073-0.008-0.145-0.011-0.218c-0.002-0.003-0.003-0.008-0.006-0.011
		c-0.021-0.382-0.053-0.783-0.088-1.189c-0.047-0.524-0.101-1.057-0.161-1.591c-0.032-0.265-0.061-0.525-0.097-0.792
		c0.001-0.001,0-0.002,0-0.003c-0.014-0.122-0.03-0.241-0.046-0.362c-0.001-0.004-0.002-0.006-0.004-0.01
		c-0.146-1.099-0.319-2.211-0.499-3.284c0.002-0.023,0.006-0.047,0.009-0.072c-0.568-3.483-1.176-6.258-1.176-6.258
		c-0.036-0.081-0.077-0.158-0.11-0.238c-0.055-0.25-0.089-0.408-0.1-0.459c-0.039-0.843,0.619-1.87,0.619-1.87
		c0.999-0.656,2.701-2.932,4.001-4.804c2.762-3.612,1.66-9.867,1.489-10.747c-2.019-9.073-7.585-12.562-7.585-12.562l0.002,0.003
		c-2.156-1.628-5.513-2.181-8.444-2.313c-0.269-0.069-0.544-0.074-0.82-0.1c-1.724-0.164-3.385-0.015-5.015,0.304
		c-0.076,0.009-0.12,0.014-0.12,0.014s-0.007,0.007-0.017,0.013c-2.024,0.411-3.997,1.086-5.962,1.822
		c-4.269,1.598-7.987,3.957-9.76,8.321c-0.306,0.753-0.59,1.523-0.813,2.304l-0.004-0.006c0,0-0.085,0.253-0.18,0.692
		c-0.007,0.03-0.014,0.061-0.02,0.094c-0.049,0.229-0.098,0.501-0.14,0.815c-0.013,0.104-0.025,0.209-0.034,0.312
		c-0.12,1.086-0.128,2.553,0.249,4.181l-0.006,0.001c0,0,0.062,0.224,0.175,0.584c0.107,0.378,0.232,0.759,0.386,1.148
		c0.872,2.46,2.743,6.91,5.498,9.086l-0.006-0.01c0.763,0.758,1.485,1.343,2.156,1.794c0.771,0.688,1.525,1.226,2.225,1.55
		l0.955,0.44c0,0,0.17,0.153-0.136,0.559c-0.171,0.229-0.712,1.057-1.906,2.258c-0.488,0.684-1.131,1.202-1.83,1.665
		c-0.636,0.528-1.365,1.089-2.21,1.68c-4.18,2.918-6.589,4.062-7.897,4.408c-1.304,0.342-5.229,1.558-5.229,1.558
		s-11.197-9.905-12.845-11.441l-0.001,0c-0.115-0.109-0.187-0.179-0.2-0.197c-0.192-0.266-1.934-1.093-4.083-0.29
		c-2.15,0.805-19.15,5.918-19.15,5.918s-1.429,0.896-0.373,1.959c0.756,0.758,6.021,5.632,8.973,8.356
		c0.018,0.013,2.563,1.903,2.696,2.208c0.133,0.306,0.723,2.275,0.723,2.275s0.316,0.942,0.952,1.039
		c0.59,0.087,14.202-1.977,16.241-2.289c0.012-0.002,0.024-0.005,0.035-0.005c0.005-0.001,0.012-0.001,0.018-0.001
		c0.135-0.023,0.211-0.034,0.211-0.034l-0.018,0.009c0.273-0.036,0.542-0.043,0.776,0.032l1.595,0.067c0,0,0.544,0.172-0.577,1.344
		c-1.12,1.171-5.48,9.764-5.48,9.764s-0.711,1.736,0.078,3.922c0.676,1.875,2.143,2.998,3.167,3.434
		c1.776,0.619,3.718,0.746,5.587,0.865c3.777,0.246,7.777,2.381,11.403-0.748c0.279-0.242,1.157,0.07,1.689,0.291
		c2.776,1.135,5.72,1.619,8.607,2.32c0.51,0.998,1.427,2.992,1.53,4.641c0.144,2.299,0.403,10.85,0.403,10.85s0.058,0.541-0.6,1.758
		c-0.001,0-2.249,1.178-5.107,2.717c-1.03,0.451-2.002,1.016-2.96,1.609c-3.853,2.115-7.828,4.387-8.77,5.252
		c-0.426,0.002-0.847,0.086-1.214,0.309c-1.025,0.619-1.457,1.297-1.742,2.441c-0.154,0.623,0.043,1.512,0.328,2.068
		c0.543,1.049,1.435,1.73,2.597,1.957c0.917,0.18,1.843-0.092,2.593-0.623c0.748-0.531,1.095-1.361,1.274-2.227
		c0.091-0.449,0.062-0.891-0.059-1.307c0,0,0.213-0.664,0.297-0.836c0.038-0.082,0.758-0.533,1.634-1.047
		c0.253-0.162,0.52-0.314,0.793-0.453c0.777-0.441,1.557-0.855,2.023-1.061c1.184-0.52,8.251-4.062,8.251-4.062
		s1.751-0.787,2.546,0.365c0.079,0.115,0.198,0.293,0.333,0.5c0.208,0.244,0.404,0.525,0.578,0.869
		c0.037,0.072,0.079,0.145,0.117,0.215c1.434,2.26,3.68,5.92,3.703,6.168c0.029,0.316-0.598,1.066-0.647,1.125
		c-0.46,1.029-0.515,2.23,0.041,3.268c0.973,1.818,2.933,2.652,4.893,1.902c1.938-0.742,2.808-3.182,1.798-4.982
		c-0.49-0.873-1.253-1.602-2.137-2.006c-0.014-0.018-0.021-0.037-0.034-0.053l0.005,0.016c0,0-0.021-0.039-0.049-0.092
		c-0.19-0.268-0.346-0.559-0.475-0.861c-0.444-0.818-1.05-1.957-1.352-2.635c-0.121-0.168-0.188-0.344-0.182-0.514
		c0.001-0.016-0.004-0.035-0.003-0.043h0.002c0.017-0.137,0.084-0.26,0.227-0.369c0.402-0.305,0.804-0.35,1.196-0.26l-0.005-0.01
		c0,0,0.017,0.008,0.033,0.018c0.299,0.076,0.592,0.229,0.875,0.424c1.196,0.582,3.162,1.547,3.241,1.623
		c0.087,0.08-0.037,0.348-0.16,0.621c0.004,0.006,0.009,0.01,0.012,0.016c-0.476,0.848-0.562,1.932-0.234,2.873
		c0.127,0.363,0.33,0.678,0.572,0.959l0.946,0.768c0.047,0.029,0.094,0.059,0.145,0.082l0.738,0.293
		c0.47,0.135,0.958,0.203,1.435,0.154c1.432-0.143,2.918-1.42,2.898-2.951c-0.01-0.826-0.186-1.561-0.664-2.172
		c-0.351-0.531-1.687-1.654-1.687-1.654l0.009-0.014c-2.963-1.158-5.216-3.523-7.996-4.941c-1.714-0.873-2.96-1.934-3.81-3.184
		c-0.179-0.369-0.765-6.932-1.146-11.262c0.025-0.066,0.04-0.131,0.072-0.199c-0.098-0.66-0.181-1.234-0.246-1.754
		c-0.062-0.693-0.11-1.227-0.14-1.525c0-0.012,0.001-0.027,0-0.037c-0.157-1.641,1.139-2.24,1.529-2.383l-0.641,0.223
		c0.205-0.107,0.448-0.193,0.742-0.26c-0.01,0.004-0.042,0.016-0.101,0.037l0.103-0.035c0.854-0.188,2.091-0.225,3.864-0.27
		c5.571-0.143,11.315,0.992,16.518-2.191c0.579-0.354,1.571-0.021,2.371-0.033c2.871-0.035,6.026,0.518,6.958-3.463
		c0.149-0.641,0.784-0.887,1.371-1.07c2.918-0.91,4.513-3.201,5.947-5.674c0.407-0.701,0.733-1.432,1.023-2.17
		c1.232-3.762,6.687-29.908,6.718-30.056c0.004-0.221,0.01-0.441,0.015-0.662C278.816,44.399,277.005,43.291,272.79,45.52
		 M217.707,44.937c-2.118-3.439-3.192-8.837-2.188-11.936c0.825-2.549,2.101-4.864,3.92-6.408l-0.025,0.002
		c0,0,0.063-0.047,0.15-0.109c0.356-0.292,0.725-0.564,1.122-0.792l0.029,0.027c2.189-1.362,6.913-3.851,12.249-3.843
		c0.066,0,0.125,0.004,0.189,0.004c4.087-0.387,7.447,1.096,8.868,1.88l0-0.001c0,0,4.745,1.67,7.509,8.465
		c2.767,6.793,0.64,12.226-0.255,13.299c-0.896,1.073-3.801,4.254-6.618,5.145c-2.781,0.88-12.709,2.585-15.582,1.726
		c-0.007-0.002-0.011-0.003-0.015-0.004c-0.032-0.01-0.075-0.016-0.104-0.026c-0.042-0.016-0.09-0.034-0.133-0.051
		c-0.076-0.025-0.151-0.05-0.225-0.083C223.859,51.167,219.736,48.231,217.707,44.937 M206.908,66.943l-0.007-0.016l0.005,0
		c0.086-0.405,0.989-0.83,2.744-1.196c0.018-0.003,0.033-0.007,0.051-0.01c0.016-0.003,0.027-0.007,0.042-0.01
		c0.708-0.145,1.854-0.54,3.144-1.042c-0.125,0.274-0.201,0.662-0.188,1.22c-0.065,0.445,0.016,1.163,0.016,1.163
		c0.021,0.23-0.007,0.414-0.064,0.567c-0.001,0.004,0,0.01,0,0.012c-0.063,0.582-0.78,0.773-0.78,0.773l-4.412-0.208l-0.294-0.671
		c-0.048-0.033-0.095-0.052-0.142-0.088c0.024-0.028,0.047-0.052,0.071-0.076l-0.032-0.071
		C206.936,67.18,206.889,67.062,206.908,66.943 M209.42,69.501c4.486-0.021,8.973-0.052,13.461-0.087
		c0.788-0.006,1.761-0.328,2.256,0.403c0.518,0.765-0.116,1.06-0.607,1.433l0,0l-15.204-0.09c-0.793-0.085-1.638-0.073-2.045-0.854
		C207.795,69.259,208.639,69.508,209.42,69.501 M180.205,70.182c-0.719-0.325-1.415-0.798-2.09-1.454
		c-0.672-0.656-1.367-1.289-2.068-1.914c-2.376-2.021-4.736-4.11-4.736-4.11s-0.353-0.282-0.628-0.619
		c-0.001-0.001-0.003-0.001-0.003-0.002c-0.001-0.002-0.002-0.003-0.003-0.004c-0.104-0.126-0.189-0.259-0.247-0.39
		c-0.113-0.217-0.166-0.397-0.183-0.545c0.003-0.007,0.293-0.612,1.033-0.846l7.806-2.458l9.919-3.23l0.824-0.269
		c0.556-0.025,1.398,0.164,2.55,1.025c2.693,2.598,11.663,11.462,11.663,11.462s0.812,1.235,0.13,1.445
		c-0.644,0.194-18.967,2.536-21.032,2.799c-0.781,0.023-1.533-0.044-1.997-0.304c-0.263-0.14-0.555-0.318-0.893-0.553
		C180.237,70.206,180.218,70.192,180.205,70.182 M183.189,74.216c-0.619-0.001-0.923-0.505-0.923-0.505l-0.088-0.79
		c-0.014-0.125,0.001-0.228,0.026-0.319c0,0,0-0.002,0.001-0.004c0.139-0.492,0.729-0.572,0.729-0.572l1.528-0.06
		c2.93-0.204,5.853-0.916,8.829-1.234c3.278-0.35,6.562-0.667,9.842-1.015c0.896-0.094,2.063-0.407,2.202,0.804
		c0.112,0.954-1.088,1.212-1.809,1.151c-0.676-0.058-1.348-0.08-2.016-0.082C200.576,71.678,183.797,74.22,183.189,74.216
		 M215.438,88.426c-1.266,0.689-1.643,3.105-3.339,3.438c-0.66,0.131-2.615-0.012-4.763-0.232c-0.317-0.012-0.632-0.045-0.946-0.1
		c-3.117-0.344-6.297-0.793-6.297-0.793s-0.012-0.01-0.03-0.02c-0.905-0.166-1.729-0.762-2.517-1.426
		c-0.717-0.605-1.021-1.26-1.075-1.943c-0.004-0.008-0.012-0.018-0.014-0.027c-0.465-1.297,2.131-7.006,2.131-7.006h0.012
		c2.082-4.908,5.413-7.365,10.88-7.976l16.118-0.231l-0.003-0.002c0.822-0.046,1.477-0.441,1.686-1.708
		c0.134-0.817,0.566-1.185,1.101-1.34l-0.002-0.002c0,0-0.546-0.126,0.187-0.043c0.001,0,0.002-0.001,0.003-0.001
		c0.17-0.033,0.348-0.053,0.528-0.057c1.476-0.276,5.122-1.469,5.654-1.702c0.62-0.271,0.255-0.641,0.122-0.946
		c-0.134-0.303-0.695-0.368-0.697-0.369c-1.196,0.41-2.396,0.819-3.597,1.232c-4.888,1.834-9.842,0.534-14.771,0.286
		c-0.938-0.048-1.974-0.394-1.886-1.498c0.021-0.292,0.135-0.479,0.293-0.609l0.736-0.262c0.297-0.035,0.617-0.038,0.901-0.07
		c1.354-0.155,2.708-0.324,4.061-0.488c0.236-0.097,0.683-0.173,1.458-0.205c0.728-0.109,1.619-0.243,2.539-0.395
		c4.096-0.949,9.523-3.259,9.547-3.269c2.167-1.074,4.314-2.171,4.552-2.41c0.449-0.448,0.576-0.933,0.024-1.465
		c-0.533-0.517-1.289-0.074-1.337-0.044c-0.081,0.059-0.159,0.121-0.231,0.195c-2.992,2.978-6.859,3.957-10.726,4.931
		c-0.312,0.083-4.258,1.103-6.485,1.689l0.001-0.001l-5.069,0.582l-0.001-0.001c2.747-1.33,9.176-6.18,10.036-7.494
		c0.917-1.403,1.766-1.462,1.769-1.463c0.211-0.167,0.486-0.266,0.898-0.436c0.312-0.239,0.654-0.381,1.014-0.474
		c0.001,0,0.001,0,0.002-0.001c0.324-0.172,0.705-0.273,1.095-0.345c0.138-0.075,0.327-0.113,0.59-0.088
		c0.017,0.001,0.045,0,0.062,0.002c0.372-0.029,0.737-0.038,1.074-0.024c3.322-0.229,11.216-1.593,12.079-1.615
		c0.99-0.022,0.952,0.336,0.952,0.336l-0.007,0.001c0.218,0.142,0.389,0.364,0.521,0.603c0.015,0.008,0.032,0.01,0.049,0.02
		c0.249-0.223,0.498-0.445,0.748-0.667c-0.25,0.223-0.5,0.444-0.748,0.667c0.021,0.071,0.037,0.141,0.06,0.209
		c0.185,0.419,0.267,0.812,0.267,0.812l-0.025,0.005c2.374,7.75,2.5,15.606,0.71,23.51c-0.736,3.244-2.994,5.25-6.266,5.846
		l0.01,0.004c0,0-0.029,0.004-0.083,0.012c-0.115,0.02-0.236,0.037-0.355,0.053c-1.577,0.24-7.031,1.068-7.578,1.176
		c-0.004,0-0.007-0.002-0.012-0.002c-2.566,0.52-5.187,0.762-7.778,1.154l-2.9,0.516c-0.015,0.002-0.032,0.006-0.048,0.008
		C220.303,86.469,216.704,87.736,215.438,88.426 M250.973,91.664c-2,0.623-4.099,1.178-6.175,1.268
		c-7.827,0.342-15.607-0.547-23.386-1.27c-1.028-0.094-1.98-0.359-2.845-0.916c-0.505-0.322-1.124-0.623-1.046-1.342
		c0.075-0.715,0.75-0.869,1.404-1.158c2.862-0.961,5.927-1.844,9.037-1.756c4.18,0.121,8.168-0.803,12.244-1.344
		c4.02-0.535,7.875,0.873,11.442,2.645C253.37,88.648,252.928,91.055,250.973,91.664 M276.556,50.36
		c-1.626,5.191-2.082,10.613-3.25,15.889c-0.95,4.297-1.741,8.621-3.078,12.845c-1.068,3.379-3.514,4.943-6.453,5.961
		c-0.938,0.326-1.774,0.338-2.426-0.061c-0.016-0.01-0.035-0.006-0.05-0.02c-0.02-0.02-0.038-0.037-0.056-0.057
		c-0.531-0.377-0.932-1.041-1.125-2.104c-0.107-0.584-0.176-1.156-0.225-1.727c-0.11-0.646-0.242-1.424-0.404-2.373
		c-0.854-4.947,2.548-16.325,5.362-22.06c2.815-5.731,8.703-8.895,8.703-8.895l-0.001,0.001c0.732-0.472,1.54-0.665,2.397-0.153
		C277.008,48.244,276.833,49.475,276.556,50.36"/>
</g>
<g>
	<polyline fill-rule="evenodd" clip-rule="evenodd" fill="#FEF9DF" points="377.012,29.632 382.691,30.942 388.236,33.403 
		392.863,40.415 393.555,46.203 388.047,57.916 385.145,61.06 389.033,65.306 391.629,72.672 391.717,75.304 389.762,76.979 
		388.369,77.86 389.371,103.504 388.746,120.607 386.127,122.635 381.918,121.938 379.73,119.393 378.838,116.592 375.757,115.914 
		362.029,116.611 360.388,121.203 357.857,121.195 355.376,120.873 354.514,119.354 358.542,99.98 360.878,75.577 359.085,75.377 
		352.544,77.547 350.947,76.885 350.202,74.342 351.334,71.296 362.103,61.696 358.48,56.617 357.054,50.885 357.477,45.441 
		360.769,37.664 363.194,33.83 370.943,30.244 	"/>
	<path fill-rule="evenodd" clip-rule="evenodd" fill="#5B5C5A" d="M366.355,42.372c-1.372,1.246-2.037,0.663-2.325-0.898
		c0.62-0.748,1.076-1.823,2.384-1.197c0.117,0.291,0.234,0.586,0.352,0.879C366.628,41.56,366.493,41.965,366.355,42.372"/>
	<path fill-rule="evenodd" clip-rule="evenodd" fill="#5B5C5A" d="M381.502,42.429c-0.412,0.759-0.869,1.282-1.688,0.999
		c-0.709-0.246-0.729-0.859-0.531-1.462c0.248-0.745,0.729-1.173,1.566-0.882C381.578,41.338,381.551,41.927,381.502,42.429"/>
	<path fill="#5B5C5A" d="M365.294,47.422c0,0-0.725,0.303-0.435,1.168c0.192,0.57,0.621,1.894,1.583,2.889
		c0.604,0.69,1.75,1.94,2.144,2.007c0.285,0.047,0.872-0.209,1.369-0.465l0.599,0.432c0,0-0.051-0.334-0.271-0.608
		c0.29-0.16,0.501-0.289,0.501-0.289l-0.885,0.011c-0.091-0.033-0.188-0.056-0.305-0.058c-0.082-0.003-0.13-0.014-0.195-0.022
		l-0.448-0.195l-0.343-0.248l0.134,0.148c-0.047-0.048-0.096-0.103-0.147-0.157l0.014,0.009l-0.959-1.052
		c-0.725-0.826-1.425-1.713-1.392-2.012c4.113,0.331,8.277,0.026,12.353,0.798c0.865,0.255-0.861,1.792-2.24,2.885
		c-0.006,0.003-1.894,0.992-3.183,0.878c-1.291-0.113,1.382,1.103,1.382,1.103l0.44-0.483c0.21,0.02,0.516,0.029,0.957,0.015
		c2.236-0.065,3.779-2.854,4.092-3.759c0.312-0.907,0-2.135,0-2.135C379.051,48.305,365.294,47.422,365.294,47.422"/>
	<path fill-rule="evenodd" clip-rule="evenodd" fill="#5B5C5A" d="M381.818,29.332c-0.217-0.047-7.879-1.697-12.145-0.25
		c-4.324,1.468-7.27,3.3-9.108,6.573c-1.838,3.272-3.571,8.4-3.891,10.465c-0.108,0.708-0.211,1.672-0.297,2.632
		c0.223,4.398,1.54,8.128,2.341,9.266c0.316,0.448,0.723,0.961,1.117,1.442c0.018,0.013,0.038,0.027,0.055,0.038
		c0.075,0.102,0.148,0.196,0.221,0.293c0.631,0.752,1.173,1.354,1.173,1.354s-8.774,6.64-11.128,10.707
		c-0.001,0.001-0.009,0.007-0.009,0.007l0.005-0.001c-0.088,0.151-0.166,0.296-0.232,0.441c-0.06,0.117-0.114,0.237-0.155,0.362
		c-0.17,0.455-0.233,0.862-0.146,1.2c0.007,0.024,0.012,0.038,0.019,0.061c0.026,0.361,0.087,0.735,0.213,1.144
		c0.715,2.31,2.67,3.147,5.962,2.27c0.12-0.032,0.224-0.053,0.338-0.08l0.004-0.007l3.668-1.859c0,0-1.387,17.487-2.183,22.614
		c-0.299,1.939-0.798,4.547-1.319,7.1l-1.133,5.324c-0.412,1.848-0.739,3.217-0.854,3.551c-0.332,0.988-1.034,4.551-0.838,4.979
		c0.197,0.428,1.235,2.059,2.743,2.309c1.15,0.189,2.276,0.293,2.747,0.334h0.002c0.144,0.01,0.231,0.018,0.231,0.018
		s0.007-0.008,0.01-0.01c0.198-0.01,0.745-0.047,1.235-0.15c0.026-0.004,0.05-0.021,0.074-0.035c0.183-0.023,0.35-0.051,0.47-0.074
		c0.544-0.107,0.331-0.41,0.797-2.502c0.397-1.773,1.238-1.992,1.489-2.02c2.79-0.176,11.345-0.477,12.051-0.328
		c0.827,0.174,2.612,0.037,3.284,1.574c0.668,1.531,0.924,2.678,1.377,3.516c1.512,1.752,3.865,1.42,6.105,1.42
		c2.379-0.002,3.336-1.502,3.914-3.475c0.119-1.186,0.361-2.377,0.326-3.561c-0.055-1.779,0.977-2.365,2.436-2.309
		c4.493,0.182,8.954-0.998,13.468-0.184c3.34,0.607,6.809,0.428,10.045,1.674c0.645,0.248,1.221,0.137,1.395-0.621
		c0.189-0.826-0.377-0.936-1.035-1.049c-1.766-0.309-3.52-0.693-5.279-1.049c-0.588-0.084-1.174-0.166-1.76-0.25
		c-1.627-0.172-3.256-0.344-4.887-0.518c-1.307-0.033-2.615-0.072-3.922-0.107c-2.873,0.191-5.748,0.328-8.61,0.6
		c-1.5,0.141-1.711-0.824-1.723-1.834c-0.053-3.568-0.01-7.141-0.002-10.711c-0.012-0.627-0.021-1.252-0.037-1.877
		c0.008-0.203,0.012-0.402,0.018-0.602c0.025-1.381,0.053-2.762,0.082-4.145c-0.428-4.773-0.852-9.549-1.281-14.322
		c-0.072-0.773,0.094-1.5,0.904-1.686c2.803-0.641,2.387-2.778,2.316-4.772c-0.555-1.634-0.84-3.484-1.477-5.051
		c-0.004-0.015-0.008-0.026-0.012-0.042c-0.641-1.987-3.736-6.521-3.736-6.521c0.324-0.118,2.121-2.982,2.5-3.591
		c0.016-0.027,0.033-0.053,0.051-0.08c0.016-0.026,0.021-0.041,0.021-0.041l0.004,0.002c0.371-0.598,0.789-1.208,1.227-1.844
		c4.546-6.587,5.2-15.059-2.229-21.963C386.773,31.17,384.316,30.202,381.818,29.332 M361.065,62.917
		c-0.163,1.184-0.333,2.702-0.255,3.412c0.022,0.224,0.061,0.383,0.098,0.517l-0.001,0.013c0,0,0.048,0.435-0.115,0.807
		c-1.04,0.492-6.224,2.084-7.66,2.584C355.206,68.223,359.675,64.169,361.065,62.917 M353.729,76.41
		c-1.09,0.061-1.678-0.354-1.97-0.689l-0.019-0.035c-0.293-0.285-0.535-0.666-0.708-1.178c-0.049-0.143-0.075-0.272-0.097-0.396
		l-0.006-0.011c0,0-0.44-1.118,0.158-1.474c0.6-0.356,9.667-3.763,9.667-3.763s1.254-0.201,1.523,1.101
		c0.274,1.3,0.229,1.484,0.229,1.484s0.042,0.661-0.326,0.878C361.81,72.546,354.82,76.348,353.729,76.41 M364.384,77.215
		c-1.896-0.643-2.307-1.304-2.375-1.664c0.021-0.578,0.076-1.23,0.061-1.552c-0.031-0.634,0.16-0.431,0.16-0.431l0.83-0.725
		c0.045-0.072,0.103-0.134,0.189-0.162c0.406-0.138,0.569-0.901,0.569-0.901s-0.239-2.292-0.395-3.489
		c-0.097-0.785-0.965-1.016-0.965-1.016l0.323-2.491c-0.041-1.12,0.111-2.248,0.437-3.355l0.001-0.008h0.003
		c0.196-0.672,0.449-1.338,0.769-1.991c2.079-5.619,3.788-6.215,9.041-4.842c2.348,0.615,4.053,2.202,3.819,5.023
		c0.15,0.632,0.158,1.242,0.098,1.84l0.006-0.009c0,0-0.006,0.035-0.016,0.092c-0.061,0.51-0.17,1.012-0.311,1.508
		c-0.406,1.976-1.058,5.092-1.154,5.271c-0.142,0.259-0.606-0.314-1.219,0.393c-0.515,0.594-0.99,2.933-1.127,3.655l0.22,1.82
		c0.084,0.05,0.156,0.121,0.228,0.191l0.007-0.004c0,0,0.345,0.305,0.614,0.39c0.198,0.06,0.465,0.122,0.592,0.151
		c-0.02,0.053-0.043,0.103-0.07,0.153c-0.362,0.327-1.365,1.211-2.303,1.749c-0.944,0.542-1.884,0.779-2.367,0.867
		c-0.005,0-0.011,0.002-0.018,0.003c-0.102,0.019-0.192,0.032-0.247,0.037c-0.013,0.003-0.022-0.003-0.035-0.005
		c-0.902,0.116-1.838,0.047-2.789-0.109c-0.002,0-0.003,0.002-0.006,0.003c-0.262,0.093-1.44-0.134-2.568-0.391L364.384,77.215z
		 M387.568,78.36c0.133,0.724,1.482,31.765,1.207,34.062c-0.17,1.404-0.34,3.58-0.543,5.223c-0.018,0.674-0.133,1.328-0.33,1.879
		c-0.031,0.113-0.068,0.209-0.105,0.27v0.002c-0.223,0.508-0.523,0.9-0.891,1.084c-1.939,0.979-5.287-0.199-6.189-2.576
		c-0.695-1.824-1.742-2.775-2.963-3.289c-0.18-0.051-0.395-0.096-0.654-0.123c-1.076-0.105-14.122,0.059-15.608,1
		c-0.606,0.625-1.035,1.473-1.281,2.617c-0.377,1.775-1.515,2.146-3.194,1.594c-1.631-0.535-1.7-1.451-1.453-3.012
		c1.558-9.824,4.723-19.361,5.251-29.367c0.136-2.6,0.347-5.193,0.574-7.787c0.132-1.508,0.64-2.413,2.515-1.867
		c1.729,0.504,3.567,0.639,5.359,0.904c2.37,0.35,4.429-0.037,5.593-2.46c0.358-0.746,0.714-1.357,1.813-1.071
		c2.621,0.685,5.281,1.233,8.09,1.875c0,0,0.854-0.031,1.479,0.201C386.861,77.749,387.438,77.637,387.568,78.36 M386.59,63.022
		c1.408,3.001,2.938,5.953,4.182,9.021c0.955,2.364-0.217,3.981-2.854,3.96c-2.17-0.018-4.293-0.391-6.393-0.896
		c-1.32-0.293-4.676-1.044-5.966-1.317c-0.736-0.16-0.924-1.028-0.924-1.028c0.138-0.615,0.366-1.62,0.499-2.219
		c0.202-0.902,0.764-0.739,0.764-0.739l2.998,0.921c1.945,0.063,3.924,1.228,6.113-0.289c-0.943-0.665-1.6-1.289-2.379-1.629
		c-0.836-0.364-2-4.61-2.686,0.113c-0.074,0.501-0.82,0.446-1.324,0.312c-0.617-0.163-1.141-0.449-1.225-1.162
		c-0.027-0.254-0.031-0.522-0.023-0.789c0.246-1.067,0.51-2.448,0.691-3.451c0.127-0.082,0.27-0.119,0.441-0.075
		c1.178,0.304,3.148-0.281,3.148-0.281l-0.002,0.004c1.172-0.48,2.363-0.918,3.547-1.365
		C385.809,61.882,386.312,62.428,386.59,63.022 M391.662,40.239c1.954,5.516,0.117,10.705-3.256,15.272
		c-1.857,2.513-4.127,4.641-7.137,5.819c-0.479,0.189-0.863,0.296-1.172,0.337h-0.002l-0.008-0.001
		c-0.219,0.028-0.4,0.021-0.543-0.021l-0.803-0.033c0,0-0.363-0.578-0.316-3.094s-0.643-3.653-0.643-3.653v-0.002
		c-0.543-0.163-1.205-0.456-2.042-0.863c-3.768-1.837-7.567-2.564-11.376-0.06c0,0-0.601,1.819-0.999,2.8l0.006,0.005
		c0,0-0.033,0.073-0.084,0.188v0.001c-0.268,0.611-1.102,2.547-1.026,2.798c0.051,0.174-0.673-0.626-1.29-1.328
		c-0.352-0.203-0.632-0.61-0.833-0.959c-0.405-0.711-0.826-1.42-1.192-2.147c-0.022-0.059-0.232-0.638-0.46-1.553
		c-0.002-0.004-0.003-0.008-0.004-0.011c-0.001-0.007-0.003-0.014-0.005-0.022c-0.032-0.139-0.066-0.282-0.102-0.437
		c-0.419-1.737-0.54-3.357-0.491-4.773c0.001-0.004-0.001-0.008-0.002-0.011c0.001-0.001,0.001-0.001,0.001-0.002
		c0.115-3.332,1.117-5.542,1.117-5.542c0.825-2.153,2.201-4.1,3.18-6.196c0.475-0.641,0.95-1.284,1.423-1.924
		c0.408-0.509,0.83-0.997,1.367-1.321c2.366-2.149,5.783-2.708,7.188-2.847c2.341-0.535,4.764-0.655,7.284-0.299
		C385.477,31.216,389.697,34.684,391.662,40.239"/>
</g>
<g>
	<path fill="#FEF9DF" d="M544.264,44.728l-11.481-10.244l-10.651-2.351l-5.405,2.815l-3.32,3.065l-4.788,7.892l1.53,12.512
		l4.885,5.157l-1.549,3.599l-9.127,5.73l-0.432-0.837l2.282-5.004l-0.792-1.277l-3.239-2.294l-2.123-0.608l-4.219-1.191
		l-1.367,0.385l-0.483,1.062l-1.073,0.243l-1.859,1.167l-0.836,1.13l-0.947,0.773l-1.949,2.668l0.086,0.817l-0.662,1.852
		l-0.111,1.048l6.399,3.741l1.211,3.07l2.616,1.193l13.357-1.879l-1.52,8.559l-2.271,13.617l-1.024,11.99l0.429,2.574l5.508,1.779
		l1.463-1.301l1.527-1.641l18.93-1.443l0.905,1.328l8.084-1.26l-1.16-13.627l-5.059-22.455l-2.995-9.196l4.431-3.795
		c0,0,5.099-6.565,5.147-6.77c0.047-0.204,1.572-7.064,1.572-7.064"/>
	<path fill-rule="evenodd" clip-rule="evenodd" fill="#5B5C5A" d="M527.34,47.957c0.615-0.645,1.249-1.489,2.222-0.934
		c0.916,0.524,0.851,1.48,0.371,2.331c-0.42,0.744-1.096,1.254-1.949,0.854C527.016,49.751,526.937,48.887,527.34,47.957"/>
	<path fill-rule="evenodd" clip-rule="evenodd" fill="#5B5C5A" d="M513.47,47.112c0.312-0.766,0.583-1.473,1.31-1.165
		c1.202,0.505,0.895,1.659,0.72,2.58c-0.136,0.715-0.762,1.31-1.535,0.82C513.04,48.761,513.396,47.778,513.47,47.112"/>
	<path fill-rule="evenodd" clip-rule="evenodd" fill="#5B5C5A" d="M524.196,56.494c0,0-0.511-1.711-1.84-1.919
		c-1.08,0.108-2.267-0.033-2.057,1.544c0.137,1.021,2.132,1.461,3.041,1.153C523.825,57.106,524.081,56.834,524.196,56.494"/>
	<path fill-rule="evenodd" clip-rule="evenodd" fill="#5B5C5A" d="M534.265,94.768c0.404-2.367,0.44-4.734,0.341-7.105l-0.157-1.906
		c0,0-0.04-0.998-0.382-1.145c-0.063-0.006-0.107-0.021-0.183-0.02c-1.13,0.031-0.869,1.4-0.938,2.254
		c-0.123,1.48,0.159,2.969,0.07,4.455l0.004,0.02c0,0-0.005,0.061-0.016,0.162c-0.011,0.127-0.022,0.252-0.039,0.379
		c-0.097,0.928-0.3,2.768-0.431,3.164c-0.177,0.539-1.198,0.332-1.198,0.332l0.001-0.016c-0.207,0.068-0.447,0.107-0.767,0.092
		c-1.73-0.096-1.458-1.229-1.497-2.332c-0.228-6.35,0.739-12.625,1.166-18.933c0.062-0.925,0.572-1.957-0.698-2.151
		c-0.461-0.071-0.735,0.047-0.914,0.259c-0.471,0.45-0.617,8.296-0.905,11.009c-0.162,1.516-0.182,4.598-0.145,7.164l0,0
		c-0.245,1.006,0.219,5.279,0.33,5.535c0.111,0.258,1.463,0.389,1.463,0.389c1.118,0.121,3.262,0.174,3.804,0.113
		c0.343-0.039,0.609-0.326,0.799-0.619C534.094,95.531,534.195,95.168,534.265,94.768"/>
	<path fill="#5B5C5A" d="M486.277,71.676c0,0-0.363,0.544-0.002,1.007c0.362,0.463,6.484,3.506,6.484,3.506l-0.202,1.527
		c0.123,0.24,0.314,0.57,0.514,0.904c0.061,0.092,0.136,0.176,0.185,0.273c0.049,0.1,0.101,0.186,0.152,0.277
		c0.203,0.33,0.36,0.576,0.375,0.602c1.328,1.834,3.038,1.676,4.95,1.568c2.623-0.146,5.196-0.727,7.64-1.678
		c2.266-0.883,3.052-0.643,2.595,2.094c-1.558,9.318-3.87,18.543-3.646,28.109c0.012,0.479-0.065,0.904-0.216,1.289
		c0,0-0.896,3.75-0.104,5.697c1.05-0.191,2.107,0.105,3.22,0.314l-0.003,0.002c0,0,0.013,0,0.032,0.004
		c0.198,0.037,0.4,0.064,0.604,0.092c0.935,0.143,2.615,0.393,3.029,0.418c0.579,0.035,1.716-1.004,1.716-1.004l0.309-0.676
		l-0.004,0.002c0.062-0.094,0.117-0.188,0.147-0.264c0.225-0.574,0.646-0.713,0.646-0.713l6.03-1.01l-0.081,0.035
		c0.711-0.117,1.435-0.197,2.191-0.178c3.49,0.096,6.854-0.701,10.454,0.334c0.091,0.146,0.188,0.285,0.278,0.4
		c0.342,0.441,1.613,0.033,1.622,0.031c1.419-0.125,6.618-0.598,7.214-0.855c0.058-0.033,0.113-0.076,0.171-0.107
		c0.477-0.371,0.76-1.197,0.92-1.457c0.029-0.049,0.167-0.08,0.373-0.098l0.064-2.721c-0.805-0.447-0.836-1.531-0.927-3.982
		c-0.044-1.186-0.412-2.357-0.582-3.543c-1.526-10.633-2.627-21.387-7.411-31.218c-1.319-2.71-0.917-3.977,1.816-5.394
		c6.815-3.527,10.186-12.385,8.069-19.648c-2.325-7.977-8.56-11.552-15.635-14.141c-3.637-1.331-7.486-1.249-10.841,0.721
		c-9.531,5.594-16.063,19.427-5.725,30.695c0.422,0.46,0.811,0.845,0.674,1.556c-0.32,1.674-3.959,5.229-6.575,6.121l-0.003,0.005
		l-1.468,0.616c0,0,1.11-2.333,1.625-3.564c0.439-1.048-0.004-1.909-0.146-2.144c-0.016-0.023-0.03-0.047-0.047-0.07l-4.653-2.423
		l-0.045-0.414l0.001,0c-0.121-0.053-0.234-0.113-0.338-0.187c-2.287-1.604-4.37-2.037-6.444-1.659
		c-0.299,0.07-1.291,0.353-1.124,1.015l-3.13,1.642c0,0-0.24,0.245-0.441,0.578c-0.062,0.056-0.127,0.12-0.196,0.198
		c-0.001,0-0.004-0.009-0.004-0.009s-0.028,0.04-0.067,0.096c-0.462,0.55-0.983,1.418-0.983,1.418
		c-0.863,1.243-1.949,2.82-2.012,2.957c-0.104,0.228-0.275,1.076-0.12,1.427L486.277,71.676z M493.005,75.248l-5.569-2.951
		c0,0-0.338-0.315,0.031-0.971c0.366-0.657,0.409-0.913,0.409-0.913l5.327,3.346l0.329,0.333
		C493.532,74.091,493.055,74.79,493.005,75.248 M533.617,72.71c3.519,11.087,6.553,22.247,7.354,33.938h0.01l0.319,4.068
		c0,0-0.171,1.982-1.788,2.115s-4.163,0.393-4.163,0.393s-0.793,0.232-1.138-0.52c-0.344-0.752-0.901-1.234-2.319-1.24
		c-1.416-0.006-17.213,1.998-17.213,1.998s-1.41,0.182-1.632,0.768c-0.13,0.344-0.505,1.137-1.098,1.689
		c-0.399,0.365-2.456,0.014-4.184-0.502c-1.746-0.523-1.35-2.943-1.348-2.963c0.27-1.623,0.678-4.129,0.694-4.447
		c0-0.004,0.012-0.016,0.013-0.021c0.564-10.592,2.397-20.971,4.974-31.275c0.75-2.997,2.159-5.715,2.769-8.73
		c0.259-1.285,0.693-2.366,1.364-2.772c0.714,0.291,3.083,1.249,3.911,1.5c0.027,0.008,0.067,0.016,0.102,0.023
		c2.152,0.752,4.152,0.69,6.159,0.647C531.514,67.269,532.061,67.805,533.617,72.71 M520.724,32.415
		c-0.045,0.018-0.097,0.043-0.142,0.058c0.031,0.087,0.045,0.219,0.105,0.249c-0.061-0.03-0.074-0.162-0.108-0.248
		C520.626,32.458,520.677,32.433,520.724,32.415 M511.667,57.368c-2.722-3.644-1.978-9.569-1.057-12.687
		c0.042-0.151,0.089-0.297,0.138-0.444c0.009-0.022,0.016-0.049,0.023-0.071c0.982-2.935,2.719-6.092,7.615-9.148
		c4.897-3.057,11.834-0.468,11.834-0.468l-0.005,0.003c0.905,0.308,1.802,0.727,2.678,1.281c9.418,4.372,12.685,12.338,9.286,19.774
		c-3.564,7.799-10.772,10.405-17.104,9.802c-0.272,0.005-0.524-0.011-0.731-0.069l-0.017-0.004c-1.1-0.15-2.159-0.405-3.168-0.739
		c-1.295-0.296-2.573-0.634-3.456-1.111C516.05,62.594,514.546,61.222,511.667,57.368 M507.242,72.882
		c1.648-1.239,4.832-3.522,4.557-2.472c-0.17,0.653-0.572,1.852-0.956,2.955c-0.01,0.024-0.02,0.048-0.029,0.072
		c-0.473,1.439-0.958,2.895-1.06,3.116c-0.207,0.455-0.928,0.63-0.928,0.63s-11.475,2.37-12.255,2.472
		c-0.778,0.104-1.195-1.094-1.195-1.094l-0.046-0.633c-0.099-0.312-0.104-0.684-0.077-1.059v-0.004v-0.001
		c0.015-0.194,0.033-0.39,0.052-0.574c0.222-0.381,0.5-0.596,0.799-0.719l0.011-0.017l0.062-0.014
		c0.103-0.037,0.206-0.061,0.311-0.076L507.242,72.882z M501.109,64.025c0,0,3.578,1.494,4.379,1.997
		c0.19,0.119,0.256,0.283,0.252,0.459l0.004-0.003c0,0-0.001,0.009-0.002,0.011c-0.001,0.037-0.012,0.075-0.019,0.111
		c-0.051,0.284-0.195,1.021-0.432,1.46c-0.298,0.551-2.132,4.386-2.132,4.386l-0.948,0.461l-3.219,0.731l-2.586,0.4
		c0,0,2.3-7.606,2.792-8.687C499.692,64.272,501.109,64.025,501.109,64.025 M495.717,62.032c0.127-0.032,0.232-0.039,0.259-0.04
		l-0.001-0.01c0.05-0.015,0.108-0.022,0.166-0.031l0.003-0.002v0.001c1.326-0.201,4.347,1.174,4.347,1.174
		c-1.824-0.419-2.866,3.776-2.866,3.776l-0.462,1.16l-1.732,5.762l-0.417-0.19l0.226-10.79
		C495.251,62.246,495.714,62.034,495.717,62.032 M491.621,64.222c0.6-0.459,2.267-1.004,2.267-1.004l0.165,0.992
		c0.071,0.286,0.054,0.547-0.008,0.797l-0.001,0.014l0.134,6.504l-2.681-5.824C491.497,65.7,491.022,64.682,491.621,64.222
		 M490.374,66.051c-0.035,0.596,0.266,1.227,0.266,1.227l2.839,5.026l-0.209,0.208c-0.942-0.585-4.308-2.678-5.031-3.211
		c-0.059-0.075-0.062-0.198-0.029-0.352C488.23,68.919,489.723,66.88,490.374,66.051"/>
</g>
<g>
	<path fill-rule="evenodd" clip-rule="evenodd" fill="#FEF9DF" d="M690.678,29.688l5.566,2.589l3.603,4.407l1.047,4.696l0.329,6.378
		l-1.952,5.501l-6.394,6.722l-3.145,1.146l1.71,2.57l1.732,4.751l1.659,4.553l2.904,10.086l0.839,5.221l1.88,8.135l1.163,6.055
		l0.507,6.863l0.07,7.492l-1.373,2.652l-5.594-0.777l-2.094-0.635l-2.398-0.922l-17.048,1.959l-1.816,1.793l-3.685,0.344
		l-0.912-0.598l-1.399-5.742l-20.362,1.037l-2.494-0.488l-0.406-1.115l-1.558-15.039l-1.451-13.469l0.822-6.686l6.199-1.129
		c0,0,1.933-0.105,1.767-0.379c-0.166-0.271-0.23-1.978-0.23-1.978l4.607-2.013c0,0,12.252-7.327,12.415-7.519
		c0.163-0.192,5.839-5.788,5.839-5.788l-1.512-1.777l-5.381-5.089c0,0-1.497-6.085-1.525-6.452
		c-0.029-0.366,0.778-6.181,0.778-6.181l3.38-6.421c0,0,6.196-3.988,6.469-4.154c0.271-0.166,9.107-1.657,9.107-1.657"/>
	<path fill-rule="evenodd" clip-rule="evenodd" fill="#5B5C5A" d="M679.812,50.421c0.325,0.593-0.011,1.053-0.583,1.053
		c-1.035-0.001-2.314,0.509-2.922-0.82"/>
	<path fill-rule="evenodd" clip-rule="evenodd" fill="#5B5C5A" d="M684.899,46.595c-0.131-0.916-0.061-1.72,0.823-2.107
		c0.874-0.384,1.332,0.196,1.526,0.93c0.215,0.808,0.18,1.666-0.761,2.008C685.714,47.707,685.15,47.313,684.899,46.595"/>
	<path fill-rule="evenodd" clip-rule="evenodd" fill="#5B5C5A" d="M669.527,44.135c0.878-0.104,1.318,0.39,1.478,1.141
		c0.181,0.854,0.015,1.67-0.968,1.865c-0.664,0.132-1.106-0.387-1.281-1.011C668.522,45.292,668.624,44.544,669.527,44.135"/>
	<path fill-rule="evenodd" clip-rule="evenodd" fill="#5B5C5A" d="M662.635,100.076c-2.785-2.26-5.444-4.562-8.761-5.969
		c-2.351-0.996-3.692-0.363-4.391,2.268c-0.255,0.969-0.228,2.006-1.52,2.293c-0.742,0.166-1.359,0.631-1.044,1.506
		c0.311,0.863,1.236,0.467,1.864,0.672c1.498,0.494,0.61-0.697,0.769-1.176c0.852-2.566,2.984-0.469,4.307-1.17
		c2.306-1.221,3.071,0.281,3.78,1.961c0.59,1.396,0.825,2.873,1.073,4.521c0.031,0.211,0.068,0.439,0.101,0.656
		c0.344,0.818,0.836-0.131,0.849-0.158c0.005-0.221,0.008-0.439,0.006-0.656c-0.006-1.842-0.105-3.527,0.63-5.121
		c1.105,0.203,1.46,2.182,2.993,1.662C663.29,101.357,663.12,100.836,662.635,100.076"/>
	<path fill="#5B5C5A" d="M671.792,104.428c-0.572-0.084-1.055-0.072-1.269,0.082c-0.594,0.43-0.983,1.584-1.884,0.992
		c-0.424-0.279-0.353-1.266-0.572-1.908c-0.154-0.447,0.086-1.021-0.106-1.514c-0.06-0.092-0.393-0.518-0.884,0.508
		c-0.004,0.008-0.007,0.01-0.009,0.016c-0.439,1.953-1.252,3.662-2.695,4.977c-0.007,0.008-0.007,0.025-0.015,0.033
		c-0.359,0.346-0.166,0.982-0.159,1.006c1.787,0.193,3.703-0.018,4.735-0.912c1.071-0.928,1.885-1.473,2.825-1.447
		c0.002,0,0.001-0.004,0.003-0.004c0.207-0.002,0.626-0.092,0.726-0.715c0-0.01,0.002-0.021,0.002-0.033
		c0.004-0.035,0-0.068-0.002-0.104c0-0.045-0.006-0.086-0.01-0.129C672.373,104.777,671.792,104.428,671.792,104.428"/>
	<path fill-rule="evenodd" clip-rule="evenodd" fill="#5B5C5A" d="M680.671,78.68c0.29,1.023,0.296,2.012-0.797,2.297
		c-1.521,0.398-3.187-0.715-4.728,0.367c-0.213,0.148-0.635-0.443-0.564-0.863c0.106-0.648,5.015-2.758,5.549-2.396
		C680.365,78.242,680.523,78.512,680.671,78.68"/>
	<path fill-rule="evenodd" clip-rule="evenodd" fill="#5B5C5A" d="M669.392,93.283c-0.285,0.68-0.635,1.355-0.851,2.072
		c-0.212,0.701,1.121,1.848-0.422,2.109c-0.819,0.139-0.757-1.004-1.039-1.586c-0.451-0.936-0.814-1.936,0.541-2.473
		C668.139,93.201,668.679,92.811,669.392,93.283"/>
	<path fill-rule="evenodd" clip-rule="evenodd" fill="#5B5C5A" d="M656.556,84.248c0.276-1.08,0.271-1.529,0.426-1.592
		c1.188-0.49,1.248-2.338,2.804-2.297c0.144,0.002,0.435,0.498,0.388,0.701C659.785,82.707,658.458,83.275,656.556,84.248"/>
	<path fill-rule="evenodd" clip-rule="evenodd" fill="#5B5C5A" d="M661.665,91.859c0.803-0.227,1.386,0.064,1.631,0.822
		c0.229,0.707,0.121,1.404-0.7,1.684c-0.666,0.229-1.153-0.092-1.37-0.732C661.003,92.971,660.845,92.281,661.665,91.859"/>
	<path fill-rule="evenodd" clip-rule="evenodd" fill="#5B5C5A" d="M656.369,91.93c0.803-0.227,1.386,0.064,1.631,0.822
		c0.229,0.707,0.121,1.404-0.701,1.684c-0.666,0.229-1.153-0.092-1.369-0.732C655.707,93.041,655.549,92.352,656.369,91.93"/>
	<path fill-rule="evenodd" clip-rule="evenodd" fill="#5B5C5A" d="M662.012,103.518c0.803-0.227,1.386,0.064,1.631,0.822
		c0.229,0.707,0.121,1.402-0.699,1.684c-0.666,0.227-1.154-0.092-1.371-0.732C661.351,104.629,661.191,103.939,662.012,103.518"/>
	<path fill-rule="evenodd" clip-rule="evenodd" fill="#5B5C5A" d="M670.346,86.203c0.803-0.227,1.386,0.064,1.631,0.822
		c0.229,0.707,0.12,1.402-0.7,1.684c-0.666,0.227-1.154-0.092-1.371-0.732C669.684,87.314,669.525,86.625,670.346,86.203"/>
	<path fill-rule="evenodd" clip-rule="evenodd" fill="#5B5C5A" d="M667.527,92.172c-0.574,0.26-0.956-0.049-1.244-0.48
		c-0.363-0.543-0.135-0.951,0.429-1.139c0.553-0.186,1.194-0.459,1.451,0.416C668.334,91.553,667.979,91.895,667.527,92.172"/>
	<path fill-rule="evenodd" clip-rule="evenodd" fill="#5B5C5A" d="M660.283,96.066c-0.575,0.26-0.957-0.049-1.245-0.479
		c-0.363-0.545-0.135-0.953,0.429-1.141c0.554-0.186,1.195-0.459,1.451,0.416C661.089,95.447,660.733,95.789,660.283,96.066"/>
	<path fill-rule="evenodd" clip-rule="evenodd" fill="#5B5C5A" d="M677.832,90.914c-0.574,0.26-0.956-0.049-1.244-0.48
		c-0.363-0.543-0.136-0.951,0.429-1.139c0.553-0.186,1.193-0.459,1.452,0.416C678.64,90.295,678.282,90.637,677.832,90.914"/>
	<path fill-rule="evenodd" clip-rule="evenodd" fill="#5B5C5A" d="M675.737,87.596c-0.328-0.838,0.336-1.266,0.761-1.777
		c0.3-0.359,0.694-0.408,0.941,0.043c0.489,0.891,0.086,1.52-0.708,1.957C676.367,88.02,675.981,88.07,675.737,87.596"/>
	<path fill-rule="evenodd" clip-rule="evenodd" fill="#5B5C5A" d="M669.662,83.193c0.104-0.576-0.19-1.406,0.713-1.658
		c0.448-0.125,0.713,0.293,0.783,0.664c0.132,0.697,0.1,1.412-0.734,1.674C669.969,84.016,669.73,83.688,669.662,83.193"/>
	<path fill-rule="evenodd" clip-rule="evenodd" fill="#5B5C5A" d="M680.243,96.922c-0.901-0.729-0.259-1.268-0.429-2.16
		C680.788,95.686,680.601,96.242,680.243,96.922"/>
	<path fill-rule="evenodd" clip-rule="evenodd" fill="#5B5C5A" d="M682.293,91.498c-1.228-1.52-0.627-2.574-0.527-4.221
		C682.748,88.836,682.827,89.879,682.293,91.498"/>
	<path fill-rule="evenodd" clip-rule="evenodd" fill="#5B5C5A" d="M657.794,88.965c0.016-0.387-0.075-0.822,0.39-1.02
		c0.497-0.209,0.76,0.148,0.881,0.518c0.125,0.383,0.053,0.799-0.391,1.002C658.168,89.693,657.988,89.309,657.794,88.965"/>
	<path fill-rule="evenodd" clip-rule="evenodd" fill="#5B5C5A" d="M663.598,99.021c-0.146-0.082-0.293-0.164-0.438-0.248
		c0.112-0.133,0.217-0.275,0.347-0.389c0.021-0.018,0.229,0.104,0.225,0.148C663.715,98.699,663.646,98.859,663.598,99.021"/>
	<path fill-rule="evenodd" clip-rule="evenodd" fill="#5B5C5A" d="M645.991,83.629c0,0-0.744,0.125-0.921,0.582
		c-0.179,0.461,0.153,5.699,0.153,5.699s0.49,0.67,1.216,0.631c0.728-0.039,5.604-0.73,5.803-1c0.196-0.27,0.336-0.973,0.317-1.158
		c-0.018-0.186-0.592-4.762-0.615-4.949c-0.024-0.189-0.031-0.482-1.05-0.432"/>
	<path fill-rule="evenodd" clip-rule="evenodd" fill="#5B5C5A" d="M645.956,91.891l6.179-0.84l1.424-0.471
		c0.948-0.865,0.49-1.369,0.49-1.369s-0.705-5.498-0.77-6.52c-0.064-1.02-1.18-1.072-1.18-1.072s-5.146,0.641-6.909,0.537
		c-1.767-0.102-1.908,1.25-1.908,1.25s0.548,4.764,0.627,6.662C643.989,91.965,645.956,91.891,645.956,91.891 M644.179,84.244
		c-0.031-0.711,1.29-1.492,1.93-1.43c0.638,0.062,5.432-0.084,5.432-0.084s0.63-0.07,0.896,0.734s0.544,1.955,0.742,3.123
		l0.079,2.883c-0.069,0.408-0.276,0.613-1.121,0.756c-0.846,0.143-5.604,0.916-6.01,0.73c-0.404-0.184-0.939-0.283-1.154-0.76
		C644.755,89.721,644.208,84.957,644.179,84.244"/>
	<path fill-rule="evenodd" clip-rule="evenodd" fill="#5B5C5A" d="M647,104.697c0,0-0.745,0.123-0.922,0.58
		c-0.18,0.463,0.152,5.701,0.152,5.701s0.492,0.67,1.217,0.629c0.727-0.037,5.605-0.73,5.802-1c0.198-0.27,0.337-0.973,0.318-1.156
		c-0.018-0.186-0.592-4.762-0.616-4.951c-0.023-0.188-0.031-0.48-1.049-0.43"/>
	<path fill-rule="evenodd" clip-rule="evenodd" fill="#5B5C5A" d="M646.963,112.959l6.18-0.84l1.423-0.471
		c0.95-0.865,0.49-1.371,0.49-1.371s-0.704-5.496-0.769-6.518c-0.063-1.021-1.18-1.074-1.18-1.074s-5.146,0.643-6.909,0.539
		c-1.766-0.102-1.908,1.25-1.908,1.25s0.549,4.764,0.627,6.66C644.996,113.033,646.963,112.959,646.963,112.959 M645.186,105.312
		c-0.03-0.713,1.291-1.494,1.93-1.43c0.64,0.062,5.434-0.084,5.434-0.084s0.628-0.072,0.895,0.734
		c0.268,0.805,0.546,1.955,0.744,3.121l0.079,2.885c-0.07,0.406-0.277,0.611-1.123,0.756c-0.846,0.143-5.604,0.914-6.009,0.729
		c-0.403-0.184-0.938-0.281-1.155-0.758C645.763,110.787,645.216,106.025,645.186,105.312"/>
	<path fill-rule="evenodd" clip-rule="evenodd" fill="#5B5C5A" d="M677.823,103.102c0,0-0.729,0.041-0.947,0.463
		c-0.221,0.424-0.455,5.5-0.455,5.5s0.401,0.695,1.103,0.732c0.704,0.043,5.471-0.109,5.689-0.35
		c0.218-0.236,0.426-0.896,0.428-1.078c0.002-0.184-0.067-4.645-0.069-4.828c-0.003-0.184,0.02-0.465-0.965-0.523"/>
	<path fill-rule="evenodd" clip-rule="evenodd" fill="#5B5C5A" d="M676.917,111.047l6.032-0.156l1.42-0.303
		c1.004-0.73,0.615-1.266,0.615-1.266s-0.098-5.363-0.05-6.354c0.045-0.988-1.021-1.156-1.021-1.156s-5.02,0.074-6.706-0.211
		c-1.687-0.287-1.967,1-1.967,1s0.025,4.641-0.1,6.475C675.017,110.91,676.917,111.047,676.917,111.047 M676.014,103.502
		c0.045-0.688,1.398-1.301,2.008-1.172c0.607,0.127,5.234,0.494,5.234,0.494s0.614-0.002,0.785,0.801s0.316,1.938,0.385,3.082
		l-0.229,2.783c-0.111,0.385-0.331,0.561-1.16,0.607c-0.828,0.049-5.488,0.289-5.857,0.068s-0.873-0.373-1.03-0.854
		C675.99,108.83,675.969,104.191,676.014,103.502"/>
	<path fill="#5B5C5A" d="M641.741,115.199c0.107,0.293,0.282,0.637,0.545,0.781c0.498,0.27,6.255,0.248,6.255,0.248l15.861-0.896
		c0,0,0.63-0.096,0.872,0.568c0.239,0.656,0.618,2.469,0.63,2.518c0.965,3.408,1.315,3.516,4.957,2.582
		c0.241-0.061,0.49-0.094,0.74-0.117c0.213-0.039,0.445-0.088,0.67-0.143c0.504-0.111,1.315-1.26,1.898-1.605
		c0.575-0.342,2.422-0.43,2.465-0.432c1.904-0.143,10.409-0.768,12.938-0.762c0,0,0.609-0.104,1.271-0.174
		c1.272-0.174,2.021,0.486,2.021,0.486c0.305,0.357,0.645,0.766,0.817,0.805c0.001,0.002,0.003,0,0.003,0.002
		c0.267,0.061,1.496,0.197,1.991,0.383c0.762-0.055,1.713-0.125,2.639-0.195c0.728-0.078,1.456-0.145,2.192-0.158
		c1.896-0.125,2.516-4.689,2.519-4.711c-0.39-4.363-0.776-8.729-1.166-13.094c-0.289-1.871-0.577-3.742-0.866-5.613
		c-0.353-1.607-0.707-3.215-1.062-4.82c-0.283-1.115-0.567-2.23-0.852-3.344c-0.076-0.463-0.15-0.928-0.225-1.393
		c-0.062-0.344-0.124-0.689-0.187-1.033c-1.546-7.291-3.134-14.586-6.385-21.348c-0.974-2.033-0.748-2.962,1.272-4.199
		c8.413-5.15,11.32-17.71,6.108-25.323c-1.453-2.124-3.513-3.478-5.572-4.832c-0.003-0.001-0.005-0.002-0.006-0.004
		c-2.661-1.582-4.639-2.229-5.65-2.486c-7.929-1.704-17.019,0.218-22.549,5.994c-1.401,1.62-3.323,5.974-3.578,6.56
		c-2.361,7.708-0.657,14.299,6.087,19.491c1.259,0.971,0.578,1.614-0.204,2.371c-3.163,3.057-6.42,5.969-10.263,8.072l0.05-0.009
		c0,0-6.35,3.565-10.072,5.326c0,0-1.273,0.772-1.043,1.531c0.043,0.143,0.089,0.279,0.136,0.414
		c-1.735,0.336-5.802,1.107-6.974,1.156c-1.503,0.068-1.246,0.455-1.246,0.455c-0.152,0.24-0.292,0.625-0.417,1.088
		c0.002,0.07,0.37,13.018,0.745,16.201c0.608,4.959,1.223,9.914,1.855,14.869c0.045,0.35,0.048,0.658,0.033,0.945l0.005,0.004
		l0.317,1.48L641.741,115.199z M666.677,54.541c-3.779-4.697-4.53-9.49-2.06-15.309c0.021-0.041,0.047-0.078,0.067-0.124
		c3.462-7.893,12.393-10.973,20.622-10.148l0.002-0.012c0,0,0.047,0.009,0.112,0.024c0.239,0.025,0.48,0.041,0.72,0.072l-0.15,0.055
		c1.669,0.397,6.031,1.594,8.211,3.749v0.002c0.327,0.215,0.629,0.443,0.92,0.679l0.002,0.002c0.776,0.631,1.421,1.347,1.905,2.202
		c1.974,2.807,4.368,8.187,1.308,15.471c-0.279,0.79-0.631,1.519-1.055,2.181c-0.002,0.005-0.004,0.01-0.008,0.016l-0.001-0.003
		c-1.863,2.903-4.997,4.673-8.336,6.206C681.973,62.802,671.787,60.887,666.677,54.541 M650.341,75.014
		c7.601-3.191,14.642-7.192,19.916-13.741c0.746-0.928,1.554-0.631,2.45-0.411c5.179,1.277,10.351,2.583,15.761,1.394
		c1.744-0.384,1.809,1.325,2.287,2.249c3.557,6.878,5.279,14.327,6.632,21.883c0.428,2.377,0.924,4.742,1.389,7.111
		c0.025,0.117,0.052,0.234,0.081,0.348c0.005,0.025,0.189,0.949,0.445,2.301l0.001,0.002c0.299,1.557,0.694,3.686,1.032,5.703
		c0.229,1.5,0.491,2.996,0.642,4.506c0.001,0.021,0.003,0.043,0.004,0.064c0.046,0.475,0.084,0.949,0.102,1.426
		c0.069,1.711,0.317,3.416,0.381,5.127c0.006,0.184-0.004,0.361-0.016,0.537l0.006-0.002l-0.085,2.25c0,0,0.01,1.852-1.292,1.93
		c-0.503,0.031-1.37,0.043-2.242,0.043c-0.65,0.141-1.344,0.148-2.041-0.01c-0.45-0.006-0.746-0.01-0.746-0.01l-0.289-0.357
		c-0.111-0.051-0.224-0.096-0.333-0.158c-2.221-1.242-4.396-1.576-6.927-1.127c-1.006,0.178-2.028,0.287-3.056,0.369l0.021,0.01
		c0,0-10.232,0.75-10.921,0.938l-0.016,0.006c-0.646,0.193-1.19,1.215-1.332,1.797c-0.143,0.584-0.761,0.586-0.761,0.586
		s-2.717,0.459-3.15,0.484s-0.52-0.697-0.52-0.697s-0.469-2.123-0.748-2.654c-0.279-0.533,0.343-1.012,0.343-1.012l1.12-0.211
		c2.278-0.391,4.546-0.916,6.844-1.119c3.801-0.338,7.618-0.529,11.432-0.652c1.199-0.039,1.442-0.604,1.64-1.424
		c0.213-0.764-0.523-12.59-0.579-13.107c-0.057-0.52-0.134-26.153-0.189-26.798c-0.059-0.644-1.017-0.472-0.905-0.896
		c0.112-0.423-0.684-1.067-0.685-1.069c-0.438,0.054-0.971,0.244-1.63,0.596c-4.786,2.558-9.365,5.625-14.717,6.967
		c-1.415,0.355-3.511,1.852-4.245-0.021c-0.844-2.146,1.821-2.212,3.133-2.744c5.461-2.21,10.206-5.67,15.305-8.505
		c0.603-0.335,1.439-0.774,0.944-1.583c-0.56-0.912-1.265-0.058-1.807,0.23c-1.421,0.753-2.812,1.567-4.169,2.434
		c-1.216,0.777-2.415,1.598-3.674,2.259l-0.002,0c-0.552,0.291-1.117,0.546-1.696,0.757c-2.818,1.268-8.215,3.738-8.806,4.342
		c-0.077,0.111-0.15,0.223-0.218,0.335c-0.152,0.026-0.313,0.051-0.482,0.073c0.074-0.438,0.323-1.571,0.497-2.34
		c1.584-0.934,3.501-2.141,3.652-2.599c0.003-0.006,0.011-0.013,0.013-0.019c0,0,0.172-1.32-0.45-1.237
		c-0.529,0.07-1.303,0.676-1.526,0.858c-0.011,0.01-0.023,0.02-0.037,0.03l-0.032,0.026v0c-3.689,2.963-8.132,4.538-12.463,6.298
		c-0.821,0.334-1.764,0.41-2.662,0.502c-0.899,0.092-2.067,0.148-2.301-0.891C648.436,75.375,649.659,75.299,650.341,75.014
		 M662.9,74.324l0.008,1.551c-1.112,0.099-2.322,0.152-3.187,0.182c0.871-0.496,1.734-1.01,2.639-1.433
		C662.36,74.624,662.567,74.51,662.9,74.324 M642.771,110.365c-1.182-10.332-3.723-20.197-1.968-30.438c0,0,0.227-0.113,1.096-0.164
		s13.438-0.982,13.438-0.982l8.621-1.137c0.066,1.076,0.622,2.225,1.586,3.518c1.697,2.27-1.799,1.711-2.729,3.051
		c1.573,0.518,3.287,0.553,4.001,2.215c0.221,0.518,0.577,1.311,1.284,0.891c0.707-0.418,0.512-1.281,0.221-1.932
		c-1.869-4.156-1.919-4.262,2.428-5.711c3.663-1.221,6.978-3.166,10.505-4.653c4.073-1.715,5.354-0.915,4.747,3.305
		c-0.922,6.443-0.524,12.881-0.297,19.324l0.002,0.006c0.644,2.406,0.411,9.773,0.677,11.785c0.003,0.025,0,0.043,0.004,0.066
		c0.001,0.008,0.002,0.016,0.001,0.025c0.068,0.6,0.013,1.041-0.095,1.369c-0.014,0.047-0.026,0.1-0.043,0.143
		c-0.02,0.051-0.043,0.088-0.066,0.133c-0.032,0.064-0.062,0.133-0.102,0.189c-0.237,0.34-0.506,0.426-0.506,0.426l-0.002,0.002
		c-0.725,0.377-1.984,0.428-4.031,0.453c-8.076,0.102-15.945,2.025-23.982,2.408c-2.368,0.113-4.697-0.131-7.038-0.262
		c-0.732,0.025-6.195,0.207-6.654,0.084c-0.49-0.133-0.788-0.82-0.788-0.82L642.771,110.365z"/>
</g>
<g>
	<path fill-rule="evenodd" clip-rule="evenodd" fill="#EDD0AF" d="M816.331,100.547c-1.395-3.067-1.93-3.215-3.817-0.709
		c-1.148,1.526-1.658,1.057-2.185-0.35c-0.539-1.444-1.291-1.763-2.336-0.419c-0.061,0.078-0.093,0.224-0.166,0.244
		c-3.986,1.167-7.806,3.068-12.079,2.965c-0.596-0.015-1.562-0.627-1.043-1.72c0.574-1.217,1.426-2.121,2.815-1.316
		c2.527,1.465,4.34,0.003,5.161-1.849c0.699-1.579,0.382-3.312,2.988-3.002c0.732,0.088,0.48-1.358,0.524-2.117
		c0.057-0.972-0.283-1.711-1.312-2.114c-3.948-1.557-7.909-2.845-12.246-1.795c-1.091,0.264-2.598,0.271-2.697-1.035
		c-0.085-1.114,1.41-1.12,2.396-1.152c3.008-0.093,6.017,0.229,9.03-0.328c1.431-0.266,2.623,0.861,3.837,1.559
		c2.77,1.592,6.477,1.697,8.161,0.082c1.88-1.803,2.804-3.888,1.524-6.502c-1.056-2.157-4.234-3.775-7.107-3.301
		c-3.877,0.641-7.957-1.287-11.694,0.954c-1.978-1.691-4.543,0.148-6.594-1.102c3.108-0.782,4.986-3.738,8.067-4.567
		c0.087,1.451,0.195,2.883,2.254,1.683c0.558-0.326,1.114-0.387,1.734-0.207c4.022,1.162,8.423,0.879,12.162,3.107
		c2.828,1.687,6.373,0.299,9.183,2.363c2.047,1.504,4.002,2.561,6.956,0.535c3.16-2.168,3.75-2.101,1.864-5.059
		c0.872-0.277,1.605,0.106,2.262,0.527c1.246,0.799,2.46,1.069,3.517-0.176c1.259-1.479,2.126-3.741,0.894-4.966
		c-1.838-1.824-0.804-2.938-0.026-4.389c4.93-0.493,8.102,2.129,10.281,6.117c0.703,1.283,2.954,2.033,1.893,4.015
		c-1.104,2.064-2.661,4.03-5.009,4.475c-4.467,0.844-6.855,5.031-10.955,6.354c-0.571,4.428-6.049,3.678-7.687,7.639
		C825.211,99.029,820.967,100.783,816.331,100.547 M805.152,96.148l0.202,0.023l-0.079-0.222L805.152,96.148z"/>
	<path fill-rule="evenodd" clip-rule="evenodd" fill="#FEF9DF" d="M853.256,66.603c7.474-2.425,12.753-9.349,11.062-17.989
		l0.41,0.075c0,0-3.539-9.572-3.595-9.94c-0.055-0.368-8.745-4.12-8.745-4.12l-11.852,2.516l-7.358,5.855l2.366,0.426
		c-0.602,0.75-0.894,1.735-1.515,2.453c-5.551,6.405-0.388,16.744,5.072,20.444"/>
	<path fill-rule="evenodd" clip-rule="evenodd" fill="#EDE49C" d="M835.767,56.461c-0.829-0.268-2.089-0.424-1.878-1.557
		c0.234-1.259,1.499-0.515,1.978-0.61c1.566-0.095,2.762,0.135,3.87,0.637c0.827,0.375,2.364,0.398,1.924,1.769"/>
	<path fill-rule="evenodd" clip-rule="evenodd" fill="#EDE49C" d="M848.95,57.393c-0.578-0.345-1.474-0.598-1.188-1.448
		c0.292-0.872,1.168-0.491,2.336-0.387c1.273,0.259,3.043,0.57,4.784,0.999c0.658,0.164,1.441,0.544,1.277,1.413"/>
	<path fill-rule="evenodd" clip-rule="evenodd" fill="#FEF9DF" d="M813.71,77.556c2.828,1.687,6.373,0.299,9.183,2.363
		c2.047,1.504,4.002,2.561,6.956,0.535c3.16-2.168,3.75-2.103,1.864-5.059c0.872-0.279,1.605,0.106,2.261,0.527
		c1.247,0.799,2.461,1.069,3.518-0.176c1.259-1.479,2.127-3.741,0.894-4.966c-1.838-1.824-0.804-2.94-0.026-4.388l-0.037-0.009
		c-0.222-0.119-0.445-0.241-0.665-0.36c-1.997-1.341-4.149-2.204-6.601-2.149c-0.202,0.044-0.389,0.006-0.555-0.12
		c-4.063-0.255-8.123-0.791-12.192-0.083c-2.21-1.152-6.581-0.819-6.964,0.739c-0.651,2.642-2.513,3.005-4.56,2.783
		c-3.229-0.345-5.182,1.014-6.287,3.907c-0.979,0.624-1.959,1.248-2.938,1.87c0.087,1.451,0.195,2.884,2.254,1.683
		c0.558-0.326,1.114-0.387,1.734-0.207C805.57,75.61,809.971,75.327,813.71,77.556"/>
	<path fill-rule="evenodd" clip-rule="evenodd" fill="#FEF9DF" d="M866.07,56.003c-1.9,5.895-6.911,8.904-12.227,11.181
		c-1.559,0.667-2.043,1.6-2.068,2.832c-0.029,1.413,1.227,1.624,2.409,1.662c0.702,0.024,1.403,0.107,2.104,0.164
		c1.124,0.408,2.252,0.81,3.372,1.227c5.441,2.032,5.441,2.034,6.973-3.636c4.712-6.649,4.378-14.687,6.099-22.16
		c0.11-0.478,0.209-1.234-0.447-1.192c-2.529,0.156-4.601-1.723-7.475-1.719C867.047,48.259,867.286,52.233,866.07,56.003"/>
	<path fill-rule="evenodd" clip-rule="evenodd" fill="#FEF9DF" d="M832.846,41.495c0.711-0.931,0.399-1.472-0.751-1.544
		c-1.564-0.098-3.445-0.48-4.618-0.244c-1.816,0.37-0.222,2.902-0.751,4.429c-0.324,0.938-0.459,1.938-0.729,2.897
		c-0.622,2.22-1.519,4.396-1.866,6.655c-0.791,5.138,0.165,6.293,5.199,7.037c0.577,0.084,1.159,0.139,2.344,0.28
		C828.541,53.937,828.253,47.513,832.846,41.495"/>
	<path fill-rule="evenodd" clip-rule="evenodd" fill="#FEF9DF" d="M776.752,105.084c8.914,6.817,18.957,5.998,29.147,4.183
		c0.914-0.115,1.908-0.051,2.399-1.09c0.72-0.208,1.59-0.145,1.917-1.061c1.359-0.565,3.002-1.058,3.642-2.312
		c0.753-1.475,3.421-1.858,2.474-4.256c-1.396-3.069-1.93-3.216-3.817-0.709c-1.148,1.526-1.658,1.056-2.185-0.351
		c-0.539-1.444-1.291-1.763-2.336-0.419c-0.061,0.078-0.093,0.225-0.166,0.244c-3.986,1.167-7.806,3.068-12.079,2.965
		c-0.596-0.016-1.562-0.627-1.044-1.72c0.575-1.217,1.427-2.121,2.816-1.316c2.527,1.465,4.341,0.003,5.161-1.849
		c0.699-1.579,0.382-3.312,2.988-3.001c0.732,0.087,0.48-1.359,0.524-2.118c0.057-0.972-0.283-1.71-1.312-2.116
		c-3.949-1.555-7.91-2.843-12.247-1.792c-1.091,0.264-2.598,0.27-2.697-1.036c-0.085-1.114,1.41-1.12,2.396-1.152
		c3.008-0.093,6.017,0.229,9.03-0.328c1.431-0.266,2.623,0.862,3.837,1.559c2.77,1.592,6.477,1.697,8.161,0.082
		c1.88-1.803,2.804-3.888,1.524-6.501c-1.056-2.158-4.234-3.776-7.107-3.302c-3.877,0.641-7.957-1.287-11.694,0.954
		c-1.978-1.691-4.543,0.148-6.594-1.102c-0.193-0.025-0.375,0.014-0.539,0.12c-0.259,0.142-0.518,0.283-0.776,0.422
		c-2.808,0.434-3.821,2.935-5.449,4.727c-0.596,0.249-1.023,0.65-1.184,1.296c-0.11,0.172-0.222,0.344-0.332,0.514
		c-1.491,2.486-2.237,5.272-3.24,7.958c-0.708,1.309-0.942,2.678-0.534,4.13c-1.274,5.758-0.99,6.267,4.7,8.268
		c0.462,0.162,0.974,0.177,1.465,0.26c5.742,1.539,11.599,1.661,17.461,1.712l-0.333,1.598
		C792.561,108.735,784.535,107.781,776.752,105.084 M789.599,100.58c-0.306-0.067-0.609-0.176-0.67-0.432
		C788.989,100.404,789.293,100.513,789.599,100.58c0.303,0.015,0.63,0.003,0.798-0.207
		C790.229,100.583,789.901,100.595,789.599,100.58"/>
	<path fill-rule="evenodd" clip-rule="evenodd" fill="#5B5C5A" d="M850.098,55.557c1.273,0.259,3.043,0.571,4.784,1
		c0.658,0.164,1.441,0.543,1.277,1.412c-0.148,0.792-0.952,0.429-1.486,0.545c-2.072,0.452-3.948-0.065-5.723-1.121
		c-0.578-0.346-1.474-0.599-1.188-1.448C848.054,55.073,848.93,55.453,850.098,55.557"/>
	<path fill-rule="evenodd" clip-rule="evenodd" fill="#5B5C5A" d="M835.866,54.293c1.565-0.095,2.762,0.135,3.87,0.637
		c0.827,0.375,2.364,0.399,1.924,1.769c-0.376,1.168-1.723,0.794-2.686,0.623c-1.086-0.192-2.154-0.521-3.208-0.86
		c-0.829-0.268-2.089-0.423-1.878-1.559C834.123,53.645,835.388,54.389,835.866,54.293"/>
	<path fill-rule="evenodd" clip-rule="evenodd" fill="#5B5C5A" d="M810.121,110.336c2.383-1.206,4.488-2.519,6.196-3.681
		c1.371-1.154,2.817-2.207,4.306-3.2c0.106-0.086,0.189-0.15,0.225-0.173c0.003-0.003,0.008,0.011,0.013,0.01
		c1.073-0.708,2.164-1.394,3.287-2.038l2.098-1.607c0.003-0.041,0.014-0.075,0.019-0.113c1.547-1.405,5.127-4.675,5.873-5.575
		c0.551-0.666,1.12-1.114,1.785-1.509c0.308-0.135,0.609-0.275,0.895-0.446c1.524-0.913,3.321-1.275,4.5-2.869
		c1.792-2.421,3.673-4.511,6.819-5.735c3.507-1.366,6.295-4.33,8.441-7.577c0.576-0.873,1.099-0.503,1.752-0.527
		c3.26-0.115,6.333,1.138,9.558,1.253c1.564-0.191,2.321-0.98,2.1-2.64c0,0-0.258-1.874,0.058-2.868
		c0.314-0.994,1.862-3.054,1.971-3.377c0.002-0.004,0.013-0.012,0.015-0.018c0.025-0.096,0.043-0.188,0.093-0.305
		c2.864-6.644,3.03-13.906,4.644-20.842l-0.004-0.006c0,0,0.349-2.128-2.325-2.621c-0.002,0-0.003-0.001-0.005-0.001
		c-2.326,0.109-4.486-0.16-6.371-1.188l-0.002,0c0,0-0.781-0.114-1.498-0.11c-0.728-1.69-1.706-3.434-2.974-4.631
		c-0.028-0.026-0.047-0.04-0.073-0.065c-1.116-1.162-2.701-1.962-4.233-2.668c-6.612-3.048-13.137-1.595-19.142,1.037
		c-0.17,0.1-3.23,1.897-3.728,2.434c0,0-2.569,0.181-4.865-0.526c-0.191-0.059-0.324-0.128-0.434-0.202
		c-0.616-0.119-1.233-0.274-1.864-0.503c-2.04-0.742-2.521,0.045-2.323,1.593c0.513,3.985-0.696,7.589-2.008,11.19
		c-0.104,0.239-1.839,4.33-0.149,7.988l0.001-0.021c0.042,0.154,0.079,0.308,0.126,0.461c0.407,1.28-0.008,1.446-0.6,1.385
		c-1.646,0.129-7.135,0.585-9.638,1.09c-0.368,0.149-0.748,0.266-1.147,0.341c-0.006,0.003-0.014,0.007-0.019,0.009
		c-0.496,0.325-1.11,0.822-1.704,1.306c-0.51,0.473-1.038,0.892-1.596,1.245c-0.086,0.055-0.172,0.112-0.24,0.147
		c-0.004,0.001-0.011,0.001-0.015,0.004c-1.216,0.71-2.567,1.096-4.122,1.02l0.002,0.001c0,0-2.274-0.029-4.428,2.04
		c-0.199,0.443-0.525,0.805-0.964,1.099c-0.114,0.152-0.228,0.303-0.339,0.47c-0.165,0.25-0.325,0.462-0.481,0.646
		c-1.941,2.435-4.743,4.028-7.29,5.074c-3.274,1.343-6.081,2.859-8.328,5.34l0.002-0.009c0,0-0.009,0.013-0.025,0.033
		c-0.342,0.378-0.671,0.777-0.986,1.203c-0.005,0.037-0.021,0.068-0.027,0.104c-0.379,0.505-0.795,1.076-1.14,1.597
		c-0.03,0.018-0.055,0.041-0.085,0.058l-0.019,0.034c-0.101,0.186-0.199,0.369-0.298,0.554c-0.057,0.098-0.107,0.19-0.149,0.275
		c-1.159,2.195-1.925,4.589-3.146,6.75c-0.031,0.023-1.977,1.41-2.066,4.886c-0.091,3.503-0.362,4.576-0.044,5.877
		c0.007,0.093,0.013,0.184,0.019,0.277c0.021,0.05,0.033,0.101,0.054,0.15c0.146,1.223-0.242,2.618-0.213,3.012
		c0.032,0.438,0.062,0.98,0.9,1.68c0.013,0.011,0.026,0.015,0.039,0.025c0.768,0.722,1.657,1.275,2.593,1.802
		c3.484,1.959,7.145,3.218,10.937,3.967C789.575,112.245,804.326,113.272,810.121,110.336 M872.253,46.109
		c0.657-0.04,0.559,0.715,0.448,1.193c-1.722,7.474-1.388,15.511-6.1,22.16c-1.53,5.671-1.53,5.669-6.972,3.639
		c-1.121-0.419-2.248-0.819-3.373-1.229c-0.701-0.057-1.401-0.141-2.104-0.165c-0.921-0.029-1.88-0.172-2.246-0.9
		c0.632-1.069,0.826-2.331,0.884-3.002c0.273-0.215,0.607-0.412,1.021-0.59c5.316-2.277,10.327-5.286,12.228-11.181
		c0.857-2.663,0.971-5.428,0.187-8.196l0.013-0.022c0,0-0.304-1.49-0.96-3.386C867.895,44.625,869.874,46.258,872.253,46.109
		 M829.298,60.755c-5.034-0.742-5.989-1.899-5.199-7.034c0.348-2.262,1.244-4.437,1.867-6.658c0.27-0.958,0.403-1.959,0.728-2.896
		c0.529-1.528-1.065-4.059,0.752-4.429c1.173-0.238,3.053,0.146,4.618,0.243c1.149,0.072,1.461,0.613,0.751,1.544
		c-4.593,6.019-4.305,12.44-1.172,19.51C830.457,60.896,829.876,60.841,829.298,60.755 M836.754,61.942
		c-5.459-3.701-6.331-9.778-2.756-16.034c0.14-0.244,0.276-0.494,0.416-0.744c0.002-0.004,0.003-0.008,0.005-0.012
		c1.522-3.052,3.875-5.105,6.262-6.488c0.919-0.659,1.974-1.068,3.05-1.44c0.46-0.176,0.908-0.328,1.337-0.461
		c0.082-0.03,0.164-0.057,0.245-0.086c0.031-0.004,0.06-0.01,0.091-0.015c2.266-0.667,3.925-0.788,3.925-0.788v0.001
		c0.438-0.042,0.879-0.045,1.329,0.01c3.138,0.394,6.271,0.731,8.431,2.85c0.002,0.001,0.004,0.003,0.007,0.004
		c2.675,1.784,4.098,5.518,4.83,8.436c0.06,0.172,0.124,0.339,0.169,0.518c0.214,0.868,0.342,1.696,0.428,2.503
		c0.089,0.623,0.124,1.005,0.124,1.005l-0.04-0.003c0.309,7.178-4.506,11.814-11.215,13.992
		C847.661,67.048,841.729,65.314,836.754,61.942 M776.721,105.114c8.424,2.92,17.131,3.817,26,3.403c0,0,2.276-0.808,0.031-1.527
		c-6.436-0.052-12.877-0.035-19.182-1.724c-0.489-0.086-1.002-0.101-1.465-0.263c-5.69-2-5.974-2.507-4.7-8.269
		c-0.408-1.451-0.173-2.819,0.535-4.129c1.002-2.684,1.749-5.472,3.24-7.958c0.109-0.17,0.222-0.341,0.331-0.511
		c0.161-0.648,0.589-1.05,1.185-1.3c1.627-1.791,2.642-4.291,5.448-4.725c0.259-0.142,0.518-0.283,0.776-0.423
		c0.166-0.106,0.346-0.145,0.54-0.12c3.108-0.781,4.985-3.738,8.067-4.567c0.98-0.622,1.958-1.246,2.938-1.87
		c1.106-2.892,3.059-4.252,6.286-3.907c2.048,0.222,3.909-0.141,4.561-2.783c0.383-1.558,4.754-1.891,6.965-0.739
		c4.068-0.708,8.128-0.173,12.191,0.083c0.136-0.014,0.273-0.046,0.405-0.038c0.055,0.003,0.102,0.103,0.15,0.16
		c2.451-0.057,4.603,0.806,6.601,2.146c0.221,0.12,0.442,0.241,0.664,0.361l0.038,0.008c4.93-0.494,8.102,2.128,10.281,6.116
		c0.702,1.281,2.954,2.031,1.893,4.013c-1.104,2.066-2.663,4.031-5.01,4.478c-3.917,0.74-6.238,4.054-9.517,5.748
		c-0.942,0.599-2.01,2.322-2.01,2.322l-0.023-0.009c-1.589,2.588-5.707,2.581-7.092,5.93c-1.67,4.039-5.916,5.794-10.551,5.557
		c0.947,2.398-1.721,2.783-2.474,4.258c-0.64,1.253-2.282,1.745-3.641,2.312c-0.327,0.916-1.197,0.852-1.917,1.059
		c-0.492,1.041-1.486,0.976-2.399,1.091C795.678,111.113,785.633,111.932,776.721,105.114"/>
</g>
<g>
	<path fill-rule="evenodd" clip-rule="evenodd" fill="#EDE49C" d="M998.69,49.336l-0.062,0.07
		C998.628,49.406,999.158,53.331,998.69,49.336"/>
	<path fill-rule="evenodd" clip-rule="evenodd" fill="#FEF9DF" d="M1014.257,23.224c-0.338,0.128-5.056,4.322-5.651,4.91
		c-0.569,0.562-4.153,4.248-5.257,6.179l-0.002,0.001c0,0-5.27,9.098-4.728,14.327c0.027,0.261,0.05,0.481,0.071,0.696l13.242-14.03
		c0,0,0.086-0.441,0.47-1.334c0.383-0.893,4.642-5.568,5.681-6.541"/>
	<path fill-rule="evenodd" clip-rule="evenodd" fill="#FEF9DF" d="M952.983,67.818c0.135,1.138-3.298,30.192-4.233,41.26h-0.001
		v0.023c-0.188,2.191-0.275,3.689-0.216,4.102c0,0.004,0.001,0.008,0.001,0.012l-0.223,4.25c0,0,0.027,0.658,0.296,0.779
		s3.519,0.803,4.003,0.619c0.485-0.186,0.586-0.625,0.586-0.625s0.396-5.41,3.071-6.113c2.674-0.705,14.557-2.277,14.557-2.277
		s9.633-1.109,13.608-1.494c0.013,0.002,6.682,0.988,10.139,1.285l0,0l0.492,0.031c0.612,0.004,1.633-0.125,2.091-1.01
		c0.708-1.25,1.762-3.363,1.301-4.848l-0.001-0.002c-0.137-0.926-0.957-1.375-1.838-1.701c-0.513-0.244-1.11-0.5-1.775-0.836
		l-0.003-0.002l-0.003-0.002c-1.078-0.545-2.336-1.309-3.703-2.613c-0.021-0.02-0.037-0.039-0.058-0.059
		c-0.324-0.322-0.64-0.654-0.957-0.984c-2.242-2.471-3.172-4.967-2.577-8.711v-0.008l0.006-0.014
		c0.177-1.096,0.477-2.293,0.921-3.633c1.857-5.605,6.519-16.354,8.972-21.082l0.005-0.01l0.001,0.001
		c0.376-0.724,0.703-1.316,0.957-1.715c0.071-0.109,0.14-0.217,0.211-0.325c0.178-0.254,0.435-0.602,0.756-1.024
		c2.137-2.893,8.162-11.028,9.308-12.339c1.197-1.37,4.964-6.098,6.023-7.43c0.021-0.148,0.015-0.312-0.05-0.487
		c0.02-0.113-0.045-0.266-0.482-0.659c-0.055-0.069-0.122-0.143-0.202-0.218c-0.22-0.205-0.468-0.417-0.729-0.617
		c-0.956-0.87-1.897-1.686-2.422-1.387c-0.696,0.398-4.019,4.366-4.019,4.366c-1.471,1.698-2.855,3.463-4.211,5.25l0.014-0.026
		c0,0-15.809,17.264-15.855,17.846c0,0,1.392-2.2,1.444-3.025c0.618-9.512-10.54-2.444-12.104-2.103
		c-3.076,0.644-11.614,1.581-14.699,1.424c-3.818-0.195-1.33,14.437-4.866,12.224c-0.753-1.992,1.334-3.961,0.039-5.958
		c-0.083-1.635,1.162-3.122,0.133-4.923c-2.043-3.571-3.991-7.196-5.936-10.821c-2.376-4.419-3.439-16.201-3.439-16.201
		s-0.103-1.21-0.466-1.226c-0.363-0.016-4.151,1.509-4.594,1.988c-0.438,0.476-0.304,3.371-0.302,3.418l0.001,0.002
		c-0.002,0-0.001,0.002-0.001,0.002l0.909,5.704c0.123,0.95,0.271,1.891,0.451,2.82l0.008,0.054l0.003,0.003
		c0.795,4.073,2.23,7.92,4.787,11.365l-0.035-0.018C948.077,60.122,952.821,66.454,952.983,67.818"/>
	<path fill-rule="evenodd" clip-rule="evenodd" fill="#FEF9DF" d="M1018.336,47.311c-1.45,1.189-1.844,1.711-1.845,1.713
		c-0.691,0.501-1.52,1.089-2.416,1.72c-0.817,0.3-10.49,6.896-10.49,6.896c-1.837,1.5-4.376,6.9-4.376,6.9l1.238-0.47
		c1.126-0.369,4.261-1.394,6.589-2.17c2.888-0.963,6.586-4.018,7.617-5.211c0.662-0.767,3.006-3.112,4.927-4.884
		c2.513-2.379,13.17-6.222,13.17-6.222l-0.001,0c1.268-0.227,1.01-0.52,0.959-0.756c-0.061-0.276-0.695-3.94-1.05-4.875
		c-0.355-0.935-1.362-0.418-2.123-0.307c-0.76,0.11-0.353,0.134-5.186,2.3C1020.517,44.113,1019.787,46.12,1018.336,47.311"/>
	<path fill-rule="evenodd" clip-rule="evenodd" fill="#EDE49C" d="M967.961,66.931c0.002-0.022-0.004-0.039-0.006-0.062
		c-0.014,0.017-0.03,0.024-0.044,0.04C967.929,66.917,967.944,66.924,967.961,66.931"/>
	<path fill-rule="evenodd" clip-rule="evenodd" fill="#EDE49C" d="M1005.524,29.098l-0.064,0.088
		c0.068-0.07,0.139-0.141,0.209-0.211L1005.524,29.098z"/>
	<path fill-rule="evenodd" clip-rule="evenodd" fill="#EDE49C" d="M1013.153,59.883l0.008-0.003l0.018-0.017
		C1013.171,59.87,1013.162,59.876,1013.153,59.883"/>
	<polygon fill-rule="evenodd" clip-rule="evenodd" fill="#EDE49C" points="981.558,35.912 981.553,35.911 981.562,35.916 	"/>
	<path fill-rule="evenodd" clip-rule="evenodd" fill="#EDE49C" d="M1021.373,52.315c-1.361,1.015-2.656,2.159-3.878,3.456"/>
	<path fill-rule="evenodd" clip-rule="evenodd" fill="#EDE49C" d="M1017.495,55.771c-0.167,0.177-0.338,0.346-0.505,0.522
		l0.072-0.069l4.311-3.909"/>
	<path fill-rule="evenodd" clip-rule="evenodd" fill="#FEF9DF" d="M991.167,51.706c-0.495-7.965-7.368-12.182-7.368-12.182
		l0.009,0.037c-3.519-3.062-7.802-3.771-12.315-3.77c-0.147-0.174-0.308-0.188-0.476-0.042c-2.282,0.129-4.546,0.333-6.672,1.268
		c-0.314,0.038-0.603,0.104-0.881,0.186l-1.906,1.042c-0.021,0.017-0.04,0.033-0.062,0.051l-0.49,0.462
		c-0.028,0.027-0.057,0.053-0.085,0.083c-0.017,0.012-0.033,0.028-0.049,0.042l-1.452,1.364c-3.469,3.602-7.516,10.604-1.702,20.855
		l0.001-0.007c0.062,0.112,0.116,0.226,0.181,0.338c0.067,0.037,0.119,0.083,0.202,0.109c0.125,0.358,0.276,0.672,0.453,0.953
		c0.034,0.053,0.062,0.095,0.089,0.141c0.611,0.88,1.52,1.331,2.826,1.264c7.155-0.37,14.312-0.52,21.471-0.117
		c0.522,0.231,0.991,0.346,1.426,0.371c1.147-1.094,3.711-3.859,6.384-6.796C991.128,56.138,991.335,54.396,991.167,51.706"/>
	<path fill-rule="evenodd" clip-rule="evenodd" fill="#EDE49C" d="M958.928,72.283c0.009-0.018,0.02-0.033,0.029-0.053l-0.005-0.014
		L958.928,72.283z"/>
	<path fill-rule="evenodd" clip-rule="evenodd" fill="#EDE49C" d="M1000.572,35.904l-0.03,0.096
		c0.035-0.067,0.072-0.134,0.106-0.201L1000.572,35.904z"/>
	<polygon fill-rule="evenodd" clip-rule="evenodd" fill="#EDE49C" points="954.328,46.036 954.334,46.019 954.328,46.025 	"/>
	<path fill-rule="evenodd" clip-rule="evenodd" fill="#5B5C5A" d="M960.958,53.103c-0.021,3.774,4.306,7.036,7.969,5.72
		c1.62-0.67,3.229-1.722,4.32-3.324c0.771-1.124,1.186-2.661-0.585-3.206c-3.249-1-6.579-1.83-10.024-0.911
		C961.764,51.613,960.963,51.84,960.958,53.103 M964.281,52.458c1.613-0.279,3.238-0.236,4.803,0.144
		c0.807,0.195,2.068-0.072,2.304,1.039c0.197,0.946-0.695,1.637-1.337,2.251c-0.572,0.547-1.299,0.932-1.573,1.123
		c-2.727,1.089-5.4-0.818-5.53-3.376C962.893,52.552,963.588,52.579,964.281,52.458"/>
	<path fill-rule="evenodd" clip-rule="evenodd" fill="#5B5C5A" d="M959.778,46.089c-2.231,0.871-1.975,2.056-0.426,3.402
		C961.329,48.588,961.166,47.416,959.778,46.089"/>
	<path fill-rule="evenodd" clip-rule="evenodd" fill="#5B5C5A" d="M977.229,51.314c1.203-0.43,1.061-1.531,0.865-2.504
		c-0.174-0.866-0.719-1.505-1.676-1.135c-1.122,0.433-1.201,1.435-1.003,2.481C975.844,50.829,976.287,51.649,977.229,51.314"/>
	<path fill-rule="evenodd" clip-rule="evenodd" fill="#FFFFFF" d="M971.492,35.791c-0.168,0.068-0.325,0.053-0.478-0.042
		C971.184,35.603,971.345,35.617,971.492,35.791"/>
	<path fill-rule="evenodd" clip-rule="evenodd" fill="#FFFFFF" d="M985.683,41.346c-0.134-0.18-0.267-0.362-0.398-0.542
		C985.418,40.984,985.549,41.166,985.683,41.346"/>
	<path fill-rule="evenodd" clip-rule="evenodd" fill="#5B5C5A" d="M960.958,53.103c-0.021,3.774,4.306,7.036,7.969,5.72
		c1.62-0.67,3.229-1.722,4.32-3.324c0.771-1.124,1.186-2.661-0.585-3.206c-3.249-1-6.579-1.83-10.024-0.911
		C961.764,51.613,960.963,51.84,960.958,53.103 M964.281,52.458c1.613-0.279,3.238-0.236,4.803,0.144
		c0.807,0.195,2.068-0.072,2.304,1.039c0.197,0.946-0.695,1.637-1.337,2.251c-0.572,0.547-1.299,0.932-1.573,1.123
		c-2.727,1.089-5.4-0.818-5.53-3.376C962.893,52.552,963.588,52.579,964.281,52.458"/>
	<path fill-rule="evenodd" clip-rule="evenodd" fill="#5B5C5A" d="M959.778,46.089c-2.231,0.871-1.975,2.056-0.426,3.402
		C961.329,48.588,961.166,47.416,959.778,46.089"/>
	<path fill-rule="evenodd" clip-rule="evenodd" fill="#5B5C5A" d="M977.229,51.314c1.203-0.43,1.061-1.531,0.865-2.504
		c-0.174-0.866-0.719-1.505-1.676-1.135c-1.122,0.433-1.201,1.435-1.003,2.481C975.844,50.829,976.287,51.649,977.229,51.314"/>
	<path fill="#5B5C5A" d="M998.281,109.766c0.231-0.504,0.488-1.197,0.711-2.152c0.226-0.961,0.519-1.818,0.651-2.631l0.001,0.004
		c0,0,0.125-0.49,0.049-1.158c-0.002-0.025-0.004-0.053-0.008-0.078c-0.128-0.947-0.668-2.215-2.509-2.988
		c-0.381-0.221-0.833-0.482-1.324-0.766c-0.232-0.102-0.461-0.209-0.673-0.346c-0.148-0.096-0.297-0.203-0.444-0.305
		c-0.612-0.363-1.228-0.732-1.771-1.082c0,0-0.01-0.006-0.012-0.008c-0.017-0.008-0.029-0.02-0.044-0.027
		c-0.462-0.307-3.795-2.668-4.033-7.42c0.175-2.707,1.047-5.779,1.305-6.68c0.261-0.902,8.271-17.651,8.568-18.099
		c0.298-0.447,8.579-2.056,12.503-4.75c1.282-0.88,2.299-1.688,3.12-2.393c1.073-0.995,2.109-2.04,3.123-3.115
		c3.581-3.806,7.754-6.385,12.582-7.78c0.015-0.005,0.018-0.013,0.031-0.017c0.515-0.159,1.622-0.554,2.666-0.961l0,0
		c2.21-0.646,2.592-0.295,2.656-0.137l-0.302-1.427c-0.047-0.454-0.197-1.155-0.389-1.933c-0.035-0.137-0.071-0.278-0.106-0.418
		l-0.006-0.02l0.001,0.002c-0.407-1.583-0.921-3.313-1.029-3.754c-0.084-0.335-0.211-0.542-0.333-0.674
		c-0.33-0.237-0.678-0.393-1.044-0.472c-1.561-0.171-9.283,3.548-9.804,3.746c-0.525,0.2-4.008,3.067-4.008,3.067l0.005-0.04
		c-2.004,2.603-4.773,4.356-7.488,6.197l-0.003,0.001c-0.621,0.418-4.406,2.833-4.406,2.833l6.544-7.847
		c0.927-1.221,1.916-2.394,2.949-3.534l0.067-0.081l-0.014,0.023c0.208-0.23,0.413-0.46,0.623-0.686
		c0.589-1.25,0.334-2.1-0.789-3.091c-4.133-3.65-4.076-3.71-0.096-7.847c0.42-0.436,0.802-0.905,1.2-1.36
		c1.828-2.014,2.47-1.593,2.47-1.593c-0.143-0.101-0.5-0.614-1.297-1.342c-0.008-0.014-0.009-0.028-0.017-0.04
		c-0.384-0.341-0.765-0.681-1.062-0.946l-0.008-0.007c-0.304-0.271-0.516-0.461-0.537-0.48c-0.656-0.565-1.286-1.252-1.976-1.708
		l0.003,0.001c-1.54-1.318-2.43-0.28-2.43-0.28l0.021,0.003c-0.4,0.175-0.826,0.451-1.291,0.891
		c-1.462,1.375-2.956,2.717-4.411,4.099c-4.25,4.038-7.1,8.91-8.444,14.613c-0.026,0.111-0.056,0.222-0.083,0.333
		c-0.003,0.009-0.003,0.021-0.005,0.031c-0.681,2.519-1.216,7.351-1.216,7.351l-3.274,4.052c0.156-0.644-0.001-2.46-0.177-3.978
		c0,0-0.605-3.173-1.402-4.956c-5.765-11.763-20.286-13.802-29.703-9.463c-0.397,0.224-0.795,0.45-1.193,0.677l-1.483,1.011
		c-2.214,2.143-3.759,4.621-4.887,7.341c-2.198,6.545-0.912,8.963-0.912,8.963c-0.916-1.123-2.286-6.016-2.286-6.016l0.012-0.011
		c-1.299-3.567-1.537-7.361-1.972-11.106c-0.116-0.8-0.232-1.6-0.347-2.403c-0.391-0.936-0.843-1.208-1.045-1.287
		c-2.834-0.279-5.905,1.025-7.445,2.93c-0.817,1.795-0.755,2.651-0.67,3.638c0.038,0.426,0.384,2.537,0.806,4.942
		c0.267,1.528,0.565,3.172,0.837,4.578c0.654,2.741,1.586,5.556,2.66,7.911c0.006,0.015,0.012,0.029,0.018,0.043
		c1.386,3.032,2.921,5.433,3.896,6.83c0.357,0.485,0.709,0.96,1,1.355l0.002,0.002c0.399,0.541,0.685,0.921,0.689,0.929
		c0.244,0.328,0.4,0.54,0.4,0.54l-0.014,0.012c0.724,1.134,0.934,2.468,0.718,4.241l0.006-0.016c0,0-5.731,43.971-4.231,48.658
		c1.062,1.154,6.627,0.902,6.627,0.902l2.07-1.842c-0.333-3.482,1.141-5.674,4.349-6.105c6.28-0.844,12.577-1.564,18.866-2.346
		c4.993-0.621,9.936,0.164,14.896,0.484c0.75,0.049,1.542,0.143,2.307,0.139C996.021,111.127,997.816,110.986,998.281,109.766
		 M1014.076,50.747c0.896-0.633,1.724-1.222,2.415-1.72c0.002-0.003,0.395-0.526,1.845-1.715c1.452-1.19,2.181-3.199,7.014-5.365
		s4.426-2.19,5.186-2.3c0.761-0.111,1.768-0.628,2.123,0.307c0.354,0.935,0.989,4.599,1.05,4.875
		c0.052,0.236,0.308,0.529-0.959,0.756l0.001,0c0,0-10.657,3.842-13.17,6.221c-1.921,1.773-4.265,4.117-4.928,4.885
		c-1.03,1.193-4.729,4.248-7.616,5.211c-2.328,0.777-5.463,1.801-6.589,2.17l-1.238,0.471c0,0,2.539-5.4,4.376-6.9
		C1003.585,57.641,1013.259,51.046,1014.076,50.747 M1002.738,34.753l0.002,0c0.991-1.863,4.263-5.393,4.781-5.931
		c0.544-0.563,4.862-4.567,5.174-4.685s2.35,1.6,2.35,1.6c0.858,0.666,1.718,1.391,1.718,1.391s0.535,0.265-0.415,1.194
		c-0.951,0.93-4.831,5.412-5.171,6.277s-0.412,1.293-0.412,1.293L998.71,49.314l-0.025-0.024c-0.022-0.195-0.047-0.396-0.074-0.635
		C998.003,43.537,1002.738,34.753,1002.738,34.753 M960.921,38.84c0.56-0.593,1.193-1.103,1.967-1.437l0.004-0.001
		c0.438-0.188,0.917-0.321,1.452-0.385c2.127-0.936,4.392-1.138,6.673-1.269c0.168-0.146,0.327-0.131,0.476,0.042
		c4.514-0.001,8.797,0.708,12.314,3.771l-0.008-0.037c0,0,6.873,4.217,7.368,12.182c0.168,2.69-0.039,4.433-0.418,5.651
		c-2.673,2.937-5.235,5.704-6.383,6.796c-0.434-0.025-0.904-0.141-1.427-0.371c-7.157-0.402-14.315-0.252-21.469,0.117
		c-1.308,0.066-2.217-0.384-2.827-1.264c-0.027-0.046-0.055-0.088-0.089-0.141c-0.175-0.281-0.328-0.595-0.453-0.953
		c-0.083-0.027-0.135-0.072-0.2-0.108c-0.065-0.113-0.119-0.226-0.183-0.34l-0.002,0.009
		C951.022,49.295,957.408,41.796,960.921,38.84 M967.955,66.872c0.002,0.021,0.008,0.036,0.005,0.06
		c2.354,1.078,4.824,1.691,7.98,1.799c-4.458,1.758-8.443,2.104-12.548,0.944c-1.017-0.288-2.113-0.75-1.848-1.929
		c0.218-0.961,1.405-0.995,2.316-0.963c1.366,0.048,2.702,0.865,4.099,0.148c-0.015-0.007-0.031-0.015-0.05-0.021
		C967.926,66.894,967.94,66.886,967.955,66.872c-0.008-0.751-0.901-0.639-1.337-1.474c5.381,0.107,10.604-0.572,15.748,0.876
		c-3.622,1.248-7.215,0.233-10.811-0.034C970.28,66.145,969,65.809,967.955,66.872 M958.927,72.283l0.026-0.064l0.004,0.012
		c1.372-2.763,3.499-1.084,5.371-0.857c5.768,0.697,11.42,0.266,17.633-2.227c-1.508,2.487-2.738,4.237-4.959,4.385
		c-5.185,0.348-10.396,0.881-15.58-0.055c-0.915-0.164-2.097,0.051-2.465-1.246C958.947,72.25,958.936,72.266,958.927,72.283
		 M994.91,109.666c0.049,0.002,0.098,0.004,0.154,0.004l-0.493-0.031l0,0c-3.457-0.295-10.125-1.281-10.138-1.283
		c-3.977,0.383-13.609,1.492-13.609,1.492s-11.883,1.572-14.557,2.277c-2.675,0.703-3.071,6.113-3.071,6.113
		s-0.101,0.439-0.586,0.625c-0.484,0.184-3.733-0.5-4.002-0.619c-0.269-0.123-0.296-0.779-0.296-0.779l0.222-4.25
		c0-0.004-0.002-0.008-0.001-0.012c-0.061-0.412,0.029-1.908,0.216-4.102v-0.023h0.001c0.936-11.068,4.369-40.121,4.233-41.26
		c-0.162-1.364-4.906-7.696-4.906-7.696l0.035,0.018c-2.557-3.445-3.991-7.292-4.787-11.365l-0.003-0.004l-0.008-0.053
		c-0.18-0.929-0.329-1.869-0.451-2.82l-0.909-5.704c0,0-0.001-0.002,0.001-0.002l-0.001-0.002c-0.003-0.047-0.136-2.943,0.302-3.418
		c0.442-0.479,4.23-2.004,4.594-1.988c0.363,0.016,0.466,1.226,0.466,1.226s1.062,11.781,3.439,16.201
		c1.945,3.625,3.893,7.252,5.936,10.821c1.03,1.8-0.216,3.289-0.133,4.925c1.295,1.994-0.793,3.964-0.039,5.955
		c3.536,2.215,7.579,1.566,11.397,1.762c3.085,0.156,6.232,0.037,9.31-0.605c1.562-0.342,5.429-2.111,5.952-2.719
		c0.54-0.625,3.565-6.956,3.565-6.956c0.047-0.582,15.855-17.846,15.855-17.846l-0.014,0.028c1.355-1.789,2.74-3.554,4.211-5.252
		c0,0,3.322-3.968,4.019-4.366c0.524-0.299,1.466,0.517,2.422,1.387c0.261,0.2,0.508,0.412,0.729,0.617
		c0.081,0.075,0.146,0.148,0.202,0.218c0.438,0.392,0.502,0.545,0.482,0.659c0.063,0.174,0.071,0.338,0.049,0.489
		c-1.059,1.332-4.826,6.057-6.022,7.428c-1.146,1.313-7.171,9.446-9.308,12.341c-0.321,0.421-0.58,0.768-0.756,1.022
		c-0.071,0.106-0.14,0.218-0.211,0.325c-1.908,3.009-7.79,16.34-9.935,22.807c-1.968,5.934-1.253,9.166,1.65,12.365
		c0.316,0.332,0.633,0.662,0.957,0.984c0.019,0.02,0.037,0.039,0.058,0.059c2.214,2.113,4.142,2.811,5.484,3.453
		c0.881,0.326,1.701,0.775,1.838,1.701c0.462,1.486-0.592,3.6-1.3,4.85c-0.458,0.885-1.479,1.014-2.09,1.01l0.711,0.047
		C995.53,109.709,995.239,109.691,994.91,109.666"/>
</g>
<g>
	<path fill-rule="evenodd" clip-rule="evenodd" fill="#FEF9DF" d="M1113.015,44.496c-0.046,0.182-0.099,0.363-0.138,0.547
		c-0.008,0.039-0.015,0.072-0.023,0.105c-0.387,1.867-0.459,3.783-0.314,5.733c0,0.009-0.016,1.015,0.308,2.533
		c0.042,0.271,0.081,0.539,0.131,0.811c0.071,0.233,0.223,0.683,0.468,1.272c0.889,2.485,2.671,5.533,6.197,8.054
		c0.43,0.324,0.875,0.641,1.359,0.938c0.331,0.187,0.661,0.335,0.994,0.506c0.169,0.09,0.32,0.188,0.497,0.276
		c1.666,0.825,2.956,1.34,3.957,1.63c0,0,5.079,1.184,8.351,0.641c0.074-0.013,0.124-0.031,0.188-0.046
		c3.998-0.612,7.628-2.607,10.575-5.994c3.373-3.876,5.082-12.808,0.181-18.641c-4.673-5.561-11.005-7.146-17.74-7.254
		c-0.78-0.013-1.586,0.011-2.392,0.09l-0.004-0.006c0,0-0.376,0.015-0.984,0.077l0.164,0.029c0,0-0.108-0.012-0.297-0.016
		c-0.572,0.062-1.329,0.166-2.174,0.334c-1.717,0.494-4.193,1.705-6.993,4.604C1115.137,40.947,1113.522,42.916,1113.015,44.496"/>
	<path fill-rule="evenodd" clip-rule="evenodd" fill="#5B5C5A" d="M1130.825,51.654c-0.751-0.52-0.706-1.205-0.203-1.798
		c0.552-0.649,1.3-0.992,2.097-0.339c0.62,0.509,0.799,1.224,0.295,1.855C1132.438,52.096,1131.623,52.031,1130.825,51.654"/>
	<path fill-rule="evenodd" clip-rule="evenodd" fill="#5B5C5A" d="M1117.604,48.687c0.308-0.073,0.614-0.144,0.921-0.217
		c0.822,0.492,2.021,0.833,1.209,2.16c-0.433,0.707-1.158,1.137-2.015,0.575C1116.555,50.439,1116.938,49.56,1117.604,48.687"/>
	<path fill-rule="evenodd" clip-rule="evenodd" fill="#FEF9DF" d="M1105.405,69.122c0.403,0.573,0.83,1.123,1.283,1.647
		c0.894,1.114,1.691,2.004,1.846,1.848c0.387-0.386,1.084-0.58,1.084-0.58l-0.004-0.697c0.055-0.184,0.093-0.404,0.109-0.669
		c0.172-2.884,0.068-5.783,0.087-9.337c-2.183,1.554-3.823,2.683-5.414,3.878c-0.482,0.363-1.373,0.653-0.625,1.616
		c0.036,0.046,0.069,0.097,0.105,0.145l-0.047,0.02C1103.83,66.992,1104.539,67.976,1105.405,69.122"/>
	<path fill-rule="evenodd" clip-rule="evenodd" fill="#FEF9DF" d="M1129.333,110.368c0.003-0.002,0.005-0.005,0.009-0.007
		c1.038-0.228,2.074-0.474,3.107-0.743c1.01-0.229,2.042-0.36,3.071-0.501c2.029-0.469,3.838-0.943,5.367-1.432
		c0.093-0.051,0.19-0.086,0.284-0.14c0.336-0.088,0.658-0.188,0.977-0.291c0.083-0.031,0.181-0.06,0.263-0.089
		c0.021-0.009,0.041-0.019,0.063-0.025c0.443-0.167,0.849-0.336,1.23-0.507c0.15-0.069,0.304-0.138,0.447-0.212
		c0.05-0.024,0.097-0.048,0.145-0.072c3.915-2.086,5.74-5.869,5.31-11.43c-0.722-9.347-3.938-17.931-8.403-26.084
		c-0.271-0.46-0.655-1.083-0.957-1.567c-0.971,0.453-1.814,0.761-2.418,0.949c-0.301,0.065-0.63,0.146-1.03,0.274
		c-0.241,0.072-0.481,0.129-0.722,0.19c-2.221,0.504-5.358,0.488-6.602,0.39c-0.165-0.019-0.332-0.035-0.497-0.057
		c-1.121-0.182-5.03-0.909-5.305-0.988c-0.284-0.081-0.56,0.488-0.56,0.488s-1.133,3.654-1.278,4.254
		c-0.146,0.603,0.14,0.683,0.14,0.683l1.05,0.129l0.003-0.001c0.472,0.054,1.145,0.033,2.077,0.006
		c1.976-0.053,3.928,0.03,5.898-0.455c1.095-0.269,2.61-0.373,2.457,1.265c-0.018,0.449-1.469,0.46-1.469,0.46l0.002,0.004
		c-0.55-0.006-1.097,0.081-1.646,0.249c-1.023,0.069-2.048,0.139-3.071,0.208c-5.587-0.381-11.234,0.16-16.767-1.079
		c-0.66-0.149-1.217,0.024-1.374,0.766c-0.133,0.634-0.23,1.303-0.043,1.867l-0.001,0.001c0,0-0.096,0.92,0.694,1.237l-0.009,0.007
		c0,0,0.067,0.021,0.159,0.047c0.028,0.007,0.048,0.02,0.076,0.025c0.013,0.003,0.032,0.005,0.046,0.009
		c0.582,0.166,1.942,0.542,2.521,0.604c2.089,0.218,4.178,0.469,6.268,0.674c2.226,0.279,4.092,0.459,4.476,0.35l-0.022-0.009
		c1.812,0.093,3.628,0.115,5.452,0.011c1.106,0.26,2.295-0.267,3.57-0.158c0.157,0.039,0.399,0.18,0.492,0.668
		c0.063,0.348-0.022,0.504-0.133,0.573c-0.205,0.033-0.386,0.063-0.585,0.096c0,0-8.026,0.895-9.877,0.838
		c-0.035-0.01-0.071-0.019-0.105-0.028c-0.045,0.011-0.09,0.009-0.134,0.017c-0.085-0.011-0.144-0.003-0.215-0.002
		c-0.06-0.009-0.12-0.015-0.181-0.037c-1.791-0.388-3.025,0.079-3.846,1.909c-0.692,1.545-1.76,2.932-2.742,4.333
		c-0.818,1.168-1.928,2.419-3.399,2.018c-2.595-0.703-3.069,0.944-3.797,2.685c-1.778,4.248-2.03,8.798-2.8,13.246
		c-0.166,0.96-0.098,2.161-1.358,2.456c-1.261,0.297-1.567,0.961-1.329,2.177c0.282,1.429,1.31,1.407,2.302,1.241
		c1.418-0.236,2.865-0.333,4.295-0.497l-0.001,0.001c0,0,0.024-0.004,0.03-0.005c1.18-0.138,2.344-0.329,3.47-0.688
		c0.598-0.129,1.213-0.267,1.79-0.41c2.336-0.576,2.966-1.608,3.747-2.387c0.783-0.777,0.713-3.754,0.713-3.754
		c0.008-0.195,0.002-0.403-0.018-0.621c-0.365-4.33-0.243-8.644,0.402-12.943c0.388-2.572,0.957-5.047,3.047-6.684
		c0-0.001,0-0.001,0.001-0.002c1.834-1.128,10.304,0.577,11.077,0.861c0.021,0.01,0.043,0.017,0.064,0.026
		c0.521,0.246,0.344,0.597,0.216,0.857c-0.13,0.261-0.362,0.389-0.366,0.393c-0.003,0.001-0.006-0.001-0.007-0.002
		c-0.047-0.01-8.468-1.931-10.566-0.848c-2.104,1.085-2.288,6.157-2.288,6.157s-0.478,9.865-0.354,13.229
		c0.125,3.364-2.313,5.383-2.696,5.576c0,0-0.938,1.314,0.721,1.797c0.506,0.011,1.14-0.05,1.727-0.13l-0.002,0.002
		C1119.617,111.787,1127.642,111.252,1129.333,110.368"/>
	<path fill="#5B5C5A" d="M1151.357,96.968c0.061-2.606-0.048-5.211-0.445-7.816c-0.767-3.61-1.794-7.103-3.248-10.538
		c-1.52-3.589-3.323-7.016-4.986-10.521c-0.015-0.009-0.029-0.01-0.045-0.019c-0.224-0.399-0.564-1.007-0.852-1.519
		c0.988-0.544,2.058-1.231,3.141-2.107c0.016-0.01,0.033-0.019,0.052-0.029c0.041-0.035,0.077-0.072,0.117-0.107
		c0.027-0.022,0.054-0.041,0.079-0.064c0.812-0.677,1.125-1.003,1.115-1.098c3.461-3.758,4.084-8.517,3.746-13.52
		c-0.438-5.3-3.288-8.341-3.771-8.82c-6.548-5.966-14.197-8.586-23.429-6.725c-0.79,0.159-1.544,0.347-2.266,0.563
		c-0.103,0.046-4.81,2.135-7.901,6.895c-0.08,0.163-1.283,2.668-1.77,5.468c-0.109,1.104-0.16,2.195-0.134,3.279
		c0.017,0.168,0.022,0.312,0.016,0.422c0.062,1.378,0.259,2.748,0.643,4.119c1.439,5.153,4.942,8.604,9.32,11.352
		c0.145,0.091,0.309,0.173,0.474,0.252c0,0,0.197,0.11,0.558,0.283c0.541,0.303,0.927,0.699,0.622,1.492l0.006,0.001l-1.438,4.624
		c0,0,0.055,0.509-0.812,0.581c-0.26,0.021-0.555,0.04-0.841,0.059c-0.289,0.065-0.62,0.099-1.008,0.083
		c-0.067-0.002-0.135-0.011-0.2-0.015c-0.042,0.003-0.067,0.005-0.067,0.005l-0.002-0.009c-1.614-0.076-3.224-0.29-4.839-0.419
		c-0.218-0.019-0.403-0.055-0.568-0.104l-1.298-0.254l-0.392-11.778c0-0.002-0.399-1.257-1.468-0.391l-6.842,5.552
		c-0.308,0.523,0.01,0.897,0.011,0.9l5.699,6.55c0,0-0.358,0.215-0.577,1.313c0.002,0.001,0,0,0,0.001
		c-0.021,0.162-0.053,0.334-0.102,0.517c-0.55,2.092,0.553,3.289,2.282,3.98c1.296,0.519,2.7,0.769,4.058,1.129
		c0.277,0.074,0.565,0.129,0.814,0.225l0.002,0.001l2.061,0.423l1.037,0.112c0,0-3.627,7.159-4.91,7.19
		c-1.251,0.032-2.421-0.439-3.684,0.396c-0.464,0.328-0.923,0.765-1.26,1.377c-0.551,0.998-1.393,3.598-2.075,5.851
		c-0.008,0.068-1.432,10.881-2.765,11.581c-1.336,0.702-1.806,1.238-1.723,2.153c0.082,0.914,0.303,3.031,1.375,3.158
		c1.073,0.13,12.098-1.832,12.098-1.832s0.951-0.206,1.495,0.62c0.094,0.144,0.192,0.27,0.29,0.385l0.002,0.005l0.002-0.001
		c0.472,0.559,1.02,0.829,1.878,0.79c1.039-0.046,10.489-0.931,12.213-1.349c6.8-1.603,12.923-3.688,12.923-3.688
		c0.028-0.008,0.051-0.018,0.078-0.025l0.161-0.039l0.026-0.022C1150.501,105.938,1151.277,98.177,1151.357,96.968 M1108.88,73.117
		c-0.155,0.156-0.953-0.734-1.847-1.847c-0.453-0.524-0.881-1.074-1.283-1.648c-0.865-1.146-1.575-2.129-1.575-2.129l0.048-0.021
		c-0.037-0.047-0.07-0.099-0.106-0.146c-0.748-0.96,0.143-1.251,0.626-1.614c1.59-1.196,3.231-2.325,5.413-3.878
		c-0.019,3.555,0.085,6.453-0.087,9.338c-0.016,0.263-0.054,0.483-0.109,0.668l0.004,0.698
		C1109.963,72.538,1109.266,72.731,1108.88,73.117 M1122.493,65.273c-0.178-0.087-0.328-0.186-0.497-0.276
		c-0.332-0.169-0.662-0.321-0.994-0.506c-0.484-0.298-0.93-0.615-1.359-0.939c-3.527-2.518-5.309-5.567-6.197-8.053
		c-0.245-0.589-0.396-1.039-0.468-1.272c-0.049-0.27-0.089-0.54-0.132-0.81c-0.321-1.519-0.307-2.525-0.307-2.534
		c-0.145-1.95-0.072-3.867,0.315-5.733c0.007-0.033,0.015-0.067,0.022-0.105c0.039-0.184,0.092-0.365,0.138-0.547
		c0.508-1.58,2.122-3.55,2.312-3.775c2.799-2.9,5.275-4.11,6.992-4.604c0.845-0.169,1.601-0.272,2.174-0.335
		c0.188,0.003,0.297,0.017,0.297,0.017l-0.164-0.03c0.607-0.062,0.984-0.077,0.984-0.077l0.005,0.008
		c0.804-0.082,1.61-0.104,2.391-0.092c6.736,0.109,13.066,1.695,17.74,7.254c4.901,5.833,3.192,14.765-0.181,18.641
		c-2.947,3.385-6.577,5.381-10.576,5.994c-0.064,0.016-0.114,0.032-0.187,0.046c-3.274,0.544-8.353-0.642-8.353-0.642
		C1125.449,66.612,1124.159,66.098,1122.493,65.273 M1144.576,106.274c-0.048,0.024-0.095,0.048-0.145,0.073
		c-0.144,0.074-0.297,0.142-0.446,0.212c-0.384,0.17-0.788,0.339-1.231,0.506c-0.022,0.008-0.042,0.017-0.064,0.024
		c-0.081,0.029-0.179,0.059-0.262,0.09c-0.317,0.103-0.64,0.202-0.977,0.291c-0.094,0.054-0.189,0.09-0.285,0.139
		c-1.528,0.488-3.335,0.963-5.365,1.433c-1.03,0.141-2.063,0.273-3.072,0.5c-1.032,0.271-2.068,0.517-3.107,0.744
		c-0.003,0.002-0.006,0.006-0.009,0.007c-1.69,0.884-9.713,1.418-9.713,1.418l0,0c-0.588,0.077-1.222,0.14-1.727,0.129
		c-1.658-0.482-0.721-1.797-0.721-1.797c0.383-0.193,2.82-2.213,2.695-5.576c-0.123-3.364,0.355-13.229,0.355-13.229
		s0.184-5.073,2.287-6.157c2.1-1.084,10.521,0.838,10.567,0.848c0.001,0,0.004,0,0.006-0.001c0.004-0.002,0.237-0.129,0.367-0.39
		c0.127-0.262,0.306-0.613-0.217-0.858c-0.021-0.01-0.044-0.017-0.064-0.027c-0.774-0.283-9.244-1.989-11.076-0.859
		c-0.001,0-0.001,0-0.001,0.002c-2.09,1.636-2.66,4.11-3.048,6.683c-0.645,4.3-0.768,8.614-0.401,12.944
		c0.02,0.217,0.025,0.423,0.018,0.621c0,0,0.07,2.976-0.713,3.753c-0.783,0.778-1.411,1.811-3.748,2.386
		c-0.577,0.142-1.193,0.282-1.79,0.411c-1.124,0.358-2.289,0.55-3.471,0.687c-0.004,0.002-0.029,0.006-0.029,0.006l0.001-0.002
		c-1.429,0.166-2.877,0.262-4.294,0.498c-0.993,0.166-2.021,0.188-2.302-1.241c-0.239-1.216,0.067-1.879,1.331-2.178
		c1.259-0.295,1.191-1.495,1.355-2.455c0.77-4.448,1.022-8.998,2.8-13.245c0.729-1.741,1.201-3.39,3.796-2.685
		c1.474,0.4,2.584-0.851,3.4-2.02c0.983-1.399,2.05-2.787,2.742-4.332c0.82-1.829,2.055-2.297,3.847-1.909
		c0.061,0.022,0.12,0.028,0.18,0.037c0.071-0.002,0.129-0.01,0.215,0.002c0.044-0.008,0.089-0.006,0.133-0.018
		c0.035,0.011,0.07,0.019,0.105,0.029c1.853,0.057,9.878-0.837,9.878-0.837c0.199-0.033,0.38-0.062,0.585-0.097
		c0.11-0.07,0.197-0.226,0.132-0.572c-0.092-0.489-0.334-0.63-0.49-0.668c-1.276-0.109-2.465,0.416-3.571,0.157
		c-1.823,0.105-3.639,0.081-5.451-0.01l0.021,0.008c-0.381,0.109-2.25-0.072-4.475-0.349c-2.092-0.206-4.18-0.457-6.27-0.675
		c-0.579-0.063-1.938-0.438-2.521-0.605c-0.013-0.003-0.032-0.005-0.044-0.008c-0.029-0.005-0.049-0.019-0.076-0.025
		c-0.092-0.027-0.16-0.047-0.16-0.047l0.009-0.007c-0.789-0.317-0.694-1.237-0.694-1.237l0.001-0.001
		c-0.188-0.564-0.091-1.234,0.043-1.867c0.157-0.741,0.713-0.915,1.375-0.766c5.532,1.24,11.179,0.698,16.767,1.079
		c1.023-0.069,2.046-0.139,3.071-0.209c0.549-0.167,1.096-0.254,1.646-0.249l-0.003-0.004c0,0,1.451-0.01,1.47-0.459
		c0.152-1.639-1.363-1.534-2.456-1.265c-1.974,0.484-3.924,0.402-5.9,0.457c-0.934,0.026-1.605,0.045-2.076-0.006h-0.004
		l-1.05-0.131c0,0-0.286-0.08-0.14-0.683c0.146-0.6,1.278-4.253,1.278-4.253s0.274-0.568,0.561-0.489
		c0.273,0.079,4.184,0.81,5.305,0.988c0.163,0.023,0.33,0.04,0.497,0.058c1.241,0.098,4.381,0.115,6.601-0.39
		c0.24-0.062,0.48-0.118,0.723-0.189c0.399-0.13,0.728-0.211,1.031-0.273c0.602-0.189,1.444-0.498,2.416-0.951
		c0.303,0.485,0.688,1.107,0.958,1.568c4.466,8.153,7.68,16.736,8.403,26.083C1150.317,100.405,1148.491,104.189,1144.576,106.274"
		/>
	<path fill-rule="evenodd" clip-rule="evenodd" fill="#5B5C5A" d="M1120.704,56.963L1120.704,56.963
		c3.55,2.419,7.068,1.753,7.068,1.753c0.208-0.156-0.797-2.428-0.838-2.518c-0.515-0.679-1.075-1.271-1.691-1.818
		c-0.949-0.845-1.948-0.7-3.073-0.147c-1.086,0.532-1.363,1.44-1.462,2.406C1120.695,56.759,1120.698,56.864,1120.704,56.963
		 M1126.105,57.805c-1.863-0.091-3.053-0.679-4.206-1.716C1124.125,54.285,1125.094,55.599,1126.105,57.805"/>
</g>
</svg>
